<?xml version="1.0"?>
<COLLADA xmlns="http://www.collada.org/2005/11/COLLADASchema" version="1.4.1">
	<asset>
		<contributor>
			<author>Assimp</author>
			<authoring_tool>Assimp Exporter</authoring_tool>
		</contributor>
		<created>2023-11-19T22:13:45</created>
		<modified>2023-11-19T22:13:45</modified>
		<unit name="meter" meter="0.010000" />
		<up_axis>Y_UP</up_axis>
	</asset>
	<library_effects>
		<effect id="Material_002-fx" name="Material_002">
			<profile_COMMON>
				<technique sid="standard">
					<phong>
						<diffuse>
							<color sid="diffuse">0.755003   0.800236   0.780019   1.000000</color>
						</diffuse>
					</phong>
				</technique>
			</profile_COMMON>
		</effect>
		<effect id="Material_001-fx" name="Material_001">
			<profile_COMMON>
				<technique sid="standard">
					<phong>
						<diffuse>
							<color sid="diffuse">0.755003   0.800236   0.780019   1.000000</color>
						</diffuse>
					</phong>
				</technique>
			</profile_COMMON>
		</effect>
	</library_effects>
	<library_materials>
		<material id="Material_002" name="Material_002">
			<instance_effect url="#Material_002-fx"/>
		</material>
		<material id="Material_001" name="Material_001">
			<instance_effect url="#Material_001-fx"/>
		</material>
	</library_materials>
	<library_geometries>
		<geometry id="meshId0" name="meshId0_name" >
			<mesh>
				<source id="meshId0-positions" name="meshId0-positions">
					<float_array id="meshId0-positions-array" count="1800"> 
						-0.110969 1.206438 0.267903 -0.110969 0.880810 0.267903 0.000000 0.880810 0.289976 0.000000 1.206438 0.289976 0.205044 1.206438 0.205044 0.205044 0.880809 0.205044 0.267903 0.880809 0.110969 0.267903 1.206438 0.110969 0.289976 0.880809 0.000000 0.289976 1.206438 0.000000 0.267903 0.880809 -0.110969 0.267903 1.206438 -0.110969 0.205044 0.880809 -0.205044 0.205044 1.206438 -0.205044 0.110969 0.880809 -0.267903 0.110969 1.206438 -0.267903 0.000000 0.880809 -0.289976 0.000000 1.206438 -0.289976 0.000000 1.206438 -0.289976 0.000000 0.880809 -0.289976 -0.110969 0.880809 -0.267903 -0.110969 1.206438 -0.267903 -0.205044 0.880809 -0.205044 -0.205044 1.206438 -0.205044 -0.267903 0.880809 -0.110969 -0.267903 1.206438 -0.110969 -0.289976 0.880809 0.000000 -0.289976 1.206438 0.000000 -0.267903 0.880809 0.110969 -0.267903 1.206438 0.110969 -0.205044 0.880809 0.205044 -0.205044 1.206438 0.205044 0.267903 -1.012368 -0.110969 0.289976 -1.012368 -0.000000 0.356095 -1.067670 -0.000000 0.328989 -1.067670 -0.136272 -0.124438 -0.835673 0.300421 -0.000000 -0.835673 0.325173 -0.000000 0.835673 0.325173 -0.124438 0.835673 0.300421 0.110969 0.880810 0.267903 0.110969 1.206438 0.267903 0.000000 1.259616 0.372954 0.142723 1.259616 0.344564 0.142723 2.044926 0.344564 -0.000000 2.044926 0.372954 -0.205044 -0.880810 0.205044 -0.205044 -1.012368 0.205044 -0.110969 -1.012368 0.267903 -0.110969 -0.880810 0.267903 -0.267903 -0.880810 0.110969 -0.267903 -1.012368 0.110969 -0.289976 -0.880810 -0.000000 -0.289976 -1.012368 -0.000000 -0.267903 -0.880810 -0.110969 -0.267903 -1.012368 -0.110969 -0.205044 -0.880810 -0.205044 -0.205044 -1.012368 -0.205044 -0.110969 -0.880810 -0.267903 -0.110969 -1.012368 -0.267903 0.000000 -0.880810 -0.289976 0.000000 -1.012368 -0.289976 0.110969 -0.880810 -0.267903 0.110969 -1.012368 -0.267903 
						0.000000 -1.012368 -0.289976 0.000000 -0.880810 -0.289976 0.205044 -0.880810 -0.205044 0.205044 -1.012368 -0.205044 0.267903 -0.880810 -0.110969 0.267903 -1.012368 -0.110969 0.289976 -0.880810 -0.000000 0.289976 -1.012368 -0.000000 0.267903 -0.880810 0.110969 0.267903 -1.012368 0.110969 0.205044 -0.880810 0.205044 0.205044 -1.012368 0.205044 0.110969 -0.880810 0.267903 0.110969 -1.012368 0.267903 0.000000 -0.880810 0.289976 0.000000 -1.012368 0.289976 0.289976 0.880809 0.000000 0.267903 0.880809 0.110969 0.300421 0.835673 0.124438 0.325173 0.835673 0.000000 -0.267903 0.880809 0.110969 -0.289976 0.880809 0.000000 -0.325173 0.835673 0.000000 -0.300421 0.835673 0.124438 0.267903 -0.880810 0.110969 0.289976 -0.880810 -0.000000 0.325173 -0.835673 -0.000000 0.300421 -0.835673 0.124438 -0.289976 -0.880810 -0.000000 -0.267903 -0.880810 0.110969 -0.300421 -0.835673 0.124438 -0.325173 -0.835673 -0.000000 -0.110969 0.880809 -0.267903 0.000000 0.880809 -0.289976 -0.000000 0.835673 -0.325173 -0.124438 0.835673 -0.300421 0.000000 -0.880810 -0.289976 -0.110969 -0.880810 -0.267903 -0.124438 -0.835673 -0.300421 -0.000000 -0.835673 -0.325173 0.267903 0.880809 -0.110969 0.300421 0.835673 -0.124438 -0.205044 0.880809 0.205044 -0.229932 0.835673 0.229932 0.267903 -0.880810 -0.110969 0.300421 -0.835673 -0.124438 -0.205044 -0.880810 0.205044 -0.229932 -0.835673 0.229932 -0.205044 0.880809 -0.205044 -0.229932 0.835673 -0.229932 0.110969 0.880810 0.267903 0.000000 0.880810 0.289976 -0.000000 0.835673 0.325173 0.124438 0.835673 0.300421 -0.205044 -0.880810 -0.205044 -0.229932 -0.835673 -0.229932 0.205044 0.880809 -0.205044 0.229932 0.835673 -0.229932 -0.110969 0.880810 0.267903 -0.124438 0.835673 0.300421 0.000000 -0.880810 0.289976 0.110969 -0.880810 0.267903 0.124438 -0.835673 0.300421 -0.000000 -0.835673 0.325173 
						-0.229932 -0.835673 0.229932 -0.229932 0.835673 0.229932 -0.300421 -0.835673 0.124438 -0.300421 0.835673 0.124438 -0.325173 -0.835673 -0.000000 -0.325173 0.835673 0.000000 -0.300421 -0.835673 -0.124438 -0.300421 0.835673 -0.124438 -0.229932 -0.835673 -0.229932 -0.229932 0.835673 -0.229932 -0.124438 -0.835673 -0.300421 -0.124438 0.835673 -0.300421 -0.000000 -0.835673 -0.325173 -0.000000 0.835673 -0.325173 0.124438 -0.835673 -0.300421 -0.000000 -0.835673 -0.325173 -0.000000 0.835673 -0.325173 0.124438 0.835673 -0.300421 0.229932 -0.835673 -0.229932 0.229932 0.835673 -0.229932 0.300421 -0.835673 -0.124438 0.300421 0.835673 -0.124438 0.325173 -0.835673 -0.000000 0.325173 0.835673 0.000000 0.300421 -0.835673 0.124438 0.300421 0.835673 0.124438 0.229932 -0.835673 0.229932 0.229932 0.835673 0.229932 0.124438 -0.835673 0.300421 0.124438 0.835673 0.300421 0.110969 -0.880810 -0.267903 0.000000 -0.880810 -0.289976 -0.000000 -0.835673 -0.325173 0.124438 -0.835673 -0.300421 0.000000 0.880809 -0.289976 0.110969 0.880809 -0.267903 0.124438 0.835673 -0.300421 -0.000000 0.835673 -0.325173 -0.267903 -0.880810 -0.110969 -0.300421 -0.835673 -0.124438 0.205044 -0.880810 0.205044 0.229932 -0.835673 0.229932 -0.110969 -0.880810 0.267903 -0.124438 -0.835673 0.300421 -0.267903 0.880809 -0.110969 -0.300421 0.835673 -0.124438 0.205044 0.880809 0.205044 0.229932 0.835673 0.229932 0.205044 -0.880810 -0.205044 0.229932 -0.835673 -0.229932 -0.000000 2.044926 0.372954 0.142723 2.044926 0.344564 0.263718 2.044926 0.263718 0.344564 2.044926 0.142723 0.372954 2.044926 0.000000 0.344564 2.044926 -0.142723 0.263718 2.044926 -0.263718 0.142723 2.044926 -0.344564 -0.000000 2.044926 -0.372954 -0.142723 2.044926 -0.344564 -0.263718 2.044926 -0.263718 -0.344564 2.044926 -0.142723 -0.372954 2.044926 0.000000 -0.344564 2.044926 0.142723 
						-0.263718 2.044926 0.263718 -0.142723 2.044926 0.344564 -0.372954 1.259616 0.000000 -0.344564 1.259616 0.142723 -0.344564 2.044926 0.142723 -0.372954 2.044926 0.000000 0.344564 1.259616 -0.142723 0.263718 1.259616 -0.263718 0.263718 2.044926 -0.263718 0.344564 2.044926 -0.142723 -0.263718 1.259616 -0.263718 -0.344564 1.259616 -0.142723 -0.344564 2.044926 -0.142723 -0.263718 2.044926 -0.263718 -0.142723 1.259616 0.344564 -0.142723 2.044926 0.344564 0.344564 1.259616 0.142723 0.372954 1.259616 0.000000 0.372954 2.044926 0.000000 0.344564 2.044926 0.142723 0.000000 1.259616 -0.372954 -0.142723 1.259616 -0.344564 -0.142723 2.044926 -0.344564 -0.000000 2.044926 -0.372954 -0.263718 1.259616 0.263718 -0.263718 2.044926 0.263718 0.263718 1.259616 0.263718 0.263718 2.044926 0.263718 0.142723 1.259616 -0.344564 0.142723 2.044926 -0.344564 0.000000 1.259616 -0.372954 -0.000000 2.044926 -0.372954 0.110969 1.206438 -0.267903 0.000000 1.206438 -0.289976 0.000000 1.259616 -0.372954 0.142723 1.259616 -0.344564 0.205044 1.206438 0.205044 0.267903 1.206438 0.110969 0.344564 1.259616 0.142723 0.263718 1.259616 0.263718 -0.205044 1.206438 0.205044 -0.110969 1.206438 0.267903 -0.142723 1.259616 0.344564 -0.263718 1.259616 0.263718 -0.110969 1.206438 -0.267903 -0.205044 1.206438 -0.205044 -0.263718 1.259616 -0.263718 -0.142723 1.259616 -0.344564 0.289976 1.206438 0.000000 0.267903 1.206438 -0.110969 0.344564 1.259616 -0.142723 0.372954 1.259616 0.000000 -0.267903 1.206438 -0.110969 -0.289976 1.206438 0.000000 -0.372954 1.259616 0.000000 -0.344564 1.259616 -0.142723 0.205044 1.206438 -0.205044 0.263718 1.259616 -0.263718 0.110969 1.206438 0.267903 0.142723 1.259616 0.344564 -0.267903 1.206438 0.110969 -0.344564 1.259616 0.142723 0.000000 1.206438 -0.289976 0.000000 1.259616 -0.372954 
						0.000000 1.206438 0.289976 0.000000 1.259616 0.372954 0.356095 -1.067670 -0.000000 0.328989 -1.067670 0.136272 0.328989 -1.171020 0.136272 0.356095 -1.171020 -0.000000 -0.205044 -1.012368 -0.205044 -0.110969 -1.012368 -0.267903 -0.136272 -1.067670 -0.328989 -0.251798 -1.067670 -0.251798 -0.110969 -1.012368 0.267903 -0.205044 -1.012368 0.205044 -0.251798 -1.067670 0.251797 -0.136272 -1.067670 0.328989 0.267903 -1.012368 0.110969 0.205044 -1.012368 0.205044 0.251798 -1.067670 0.251797 0.328989 -1.067670 0.136272 0.000000 -1.012368 -0.289976 0.110969 -1.012368 -0.267903 0.136272 -1.067670 -0.328989 -0.000000 -1.067670 -0.356095 0.110969 -1.012368 0.267903 0.000000 -1.012368 0.289976 -0.000000 -1.067670 0.356095 0.136272 -1.067670 0.328989 -0.267903 -1.012368 0.110969 -0.289976 -1.012368 -0.000000 -0.356095 -1.067670 -0.000000 -0.328989 -1.067670 0.136272 0.205044 -1.012368 -0.205044 0.251798 -1.067670 -0.251798 -0.267903 -1.012368 -0.110969 -0.328989 -1.067670 -0.136272 0.000000 -1.012368 -0.289976 -0.000000 -1.067670 -0.356095 -0.356095 -1.067670 -0.000000 -0.328989 -1.067670 -0.136272 -0.328989 -1.171020 -0.136272 -0.356095 -1.171020 -0.000000 0.328989 -1.067670 -0.136272 0.328989 -1.171020 -0.136272 -0.328989 -1.067670 0.136272 -0.328989 -1.171020 0.136272 0.251798 -1.067670 -0.251798 0.251798 -1.171020 -0.251798 -0.251798 -1.067670 0.251797 -0.251798 -1.171020 0.251797 0.136272 -1.067670 -0.328989 0.136272 -1.171020 -0.328989 -0.136272 -1.067670 0.328989 -0.136272 -1.171020 0.328989 -0.000000 -1.067670 -0.356095 0.000000 -1.171020 -0.356096 0.136272 -1.067670 0.328989 -0.000000 -1.067670 0.356095 0.000000 -1.171020 0.356095 0.136272 -1.171020 0.328989 -0.136272 -1.067670 -0.328989 -0.000000 -1.067670 -0.356095 0.000000 -1.171020 -0.356096 -0.136272 -1.171020 -0.328989 0.251798 -1.067670 0.251797 0.251798 -1.171020 0.251797 
						-0.251798 -1.067670 -0.251798 -0.251798 -1.171020 -0.251798 0.328989 -1.171020 -0.136272 0.356095 -1.171020 -0.000000 0.427134 -1.171020 -0.000000 0.394620 -1.171020 -0.163457 0.328989 -1.171020 0.136272 0.394620 -1.171020 0.163457 0.251798 -1.171020 0.251797 0.302029 -1.171020 0.302029 0.000000 -1.171020 0.356095 -0.136272 -1.171020 0.328989 -0.163457 -1.171020 0.394620 0.000000 -1.171020 0.427134 0.136272 -1.171020 0.328989 0.163457 -1.171020 0.394620 -0.251798 -1.171020 0.251797 -0.302029 -1.171019 0.302029 -0.328989 -1.171020 0.136272 -0.394620 -1.171019 0.163457 -0.356095 -1.171020 -0.000000 -0.427134 -1.171019 -0.000000 -0.163457 -1.171020 -0.394621 0.000000 -1.171020 -0.427134 -0.000000 -1.620549 -0.427134 -0.163457 -1.620549 -0.394621 0.302029 -1.171020 0.302029 0.163457 -1.171020 0.394620 0.163457 -1.620549 0.394620 0.302029 -1.620550 0.302029 -0.302029 -1.171020 -0.302029 -0.302029 -1.620549 -0.302030 0.394620 -1.171020 0.163457 0.394620 -1.620550 0.163457 -0.394620 -1.171019 -0.163457 -0.394621 -1.620549 -0.163457 0.427134 -1.171020 -0.000000 0.427134 -1.620550 -0.000000 -0.427134 -1.171019 -0.000000 -0.427134 -1.620549 -0.000000 0.394620 -1.171020 -0.163457 0.394620 -1.620550 -0.163457 -0.394620 -1.171019 0.163457 -0.394621 -1.620549 0.163457 0.302029 -1.171020 -0.302030 0.302029 -1.620550 -0.302030 -0.302029 -1.171019 0.302029 -0.302030 -1.620549 0.302029 0.163457 -1.171020 -0.394621 0.163457 -1.620549 -0.394621 -0.163457 -1.171020 0.394620 -0.163457 -1.620549 0.394620 0.000000 -1.171020 -0.427134 -0.000000 -1.620549 -0.427134 0.000000 -1.171020 0.427134 -0.000000 -1.620549 0.427134 0.251798 -1.171020 -0.251798 0.302029 -1.171020 -0.302030 0.136272 -1.171020 -0.328989 0.163457 -1.171020 -0.394621 0.000000 -1.171020 -0.356096 0.000000 -1.171020 -0.427134 -0.136272 -1.171020 -0.328989 -0.163457 -1.171020 -0.394621 
						-0.251798 -1.171020 -0.251798 -0.302029 -1.171020 -0.302029 -0.328989 -1.171020 -0.136272 -0.394620 -1.171019 -0.163457 -0.163457 -1.620549 0.394620 -0.302030 -1.620549 0.302029 -0.332814 -1.620549 0.332814 -0.180118 -1.620549 0.434842 0.163457 -1.620549 0.394620 -0.000000 -1.620549 0.427134 -0.000000 -1.620549 0.470670 0.180118 -1.620549 0.434842 -0.332814 -1.671889 -0.332814 -0.180118 -1.671889 -0.434842 -0.212900 -1.671889 -0.513987 -0.393388 -1.671888 -0.393388 -0.394621 -1.620549 0.163457 -0.434842 -1.620549 0.180118 -0.513987 -1.671888 -0.212900 -0.393388 -1.671888 -0.393388 -0.393389 -2.869712 -0.393388 -0.513987 -2.869712 -0.212900 -0.427134 -1.620549 -0.000000 -0.470670 -1.620549 -0.000000 -0.000000 -1.671889 -0.470670 -0.000000 -1.671889 -0.556335 -0.394621 -1.620549 -0.163457 -0.434842 -1.620549 -0.180118 -0.302029 -1.620549 -0.302030 -0.332814 -1.620549 -0.332814 0.180118 -1.671889 -0.434842 0.212900 -1.671889 -0.513987 -0.163457 -1.620549 -0.394621 -0.180118 -1.620549 -0.434842 0.332814 -1.671889 -0.332814 0.393388 -1.671890 -0.393388 0.470670 -1.620550 -0.000000 0.434842 -1.620550 0.180118 0.434842 -1.671889 0.180118 0.470670 -1.671889 -0.000000 -0.470670 -1.620549 -0.000000 -0.434842 -1.620549 -0.180118 -0.434842 -1.671889 -0.180118 -0.470670 -1.671889 -0.000000 0.434842 -1.620550 -0.180118 0.434842 -1.671889 -0.180118 -0.434842 -1.620549 0.180118 -0.434842 -1.671889 0.180118 0.332814 -1.620550 -0.332814 0.332814 -1.671889 -0.332814 -0.332814 -1.620549 0.332814 -0.332814 -1.671889 0.332814 0.180118 -1.620549 -0.434842 0.180118 -1.671889 -0.434842 -0.180118 -1.620549 0.434842 -0.180118 -1.671889 0.434842 -0.000000 -1.620549 -0.470670 -0.000000 -1.671889 -0.470670 0.180118 -1.620549 0.434842 -0.000000 -1.620549 0.470670 -0.000000 -1.671889 0.470670 0.180118 -1.671889 0.434842 -0.180118 -1.620549 -0.434842 -0.000000 -1.620549 -0.470670 
						-0.000000 -1.671889 -0.470670 -0.180118 -1.671889 -0.434842 0.332814 -1.620550 0.332814 0.332814 -1.671889 0.332814 -0.332814 -1.620549 -0.332814 -0.332814 -1.671889 -0.332814 0.302029 -1.620550 0.302029 0.332814 -1.620550 0.332814 0.394620 -1.620550 0.163457 0.434842 -1.620550 0.180118 0.427134 -1.620550 -0.000000 0.470670 -1.620550 -0.000000 0.434842 -1.671889 -0.180118 0.513987 -1.671890 -0.212900 0.394620 -1.620550 -0.163457 0.434842 -1.620550 -0.180118 0.470670 -1.671889 -0.000000 0.556335 -1.671890 -0.000000 0.302029 -1.620550 -0.302030 0.332814 -1.620550 -0.332814 0.163457 -1.620549 -0.394621 0.180118 -1.620549 -0.434842 -0.000000 -1.620549 -0.427134 -0.000000 -1.620549 -0.470670 0.434842 -1.671889 0.180118 0.513987 -1.671890 0.212900 0.332814 -1.671889 0.332814 0.393388 -1.671890 0.393388 -0.556335 -1.671888 -0.000000 -0.556336 -2.869711 -0.000000 0.556335 -1.671890 -0.000000 0.513987 -1.671890 0.212900 0.513986 -2.869714 0.212900 0.556335 -2.869714 -0.000000 -0.513987 -1.671888 0.212900 -0.513987 -2.869711 0.212900 0.393388 -1.671890 -0.393388 0.513987 -1.671890 -0.212900 0.513986 -2.869714 -0.212900 0.393388 -2.869714 -0.393388 -0.393388 -1.671888 0.393388 -0.393389 -2.869712 0.393388 0.212900 -1.671889 -0.513987 0.212900 -2.869713 -0.513987 -0.212900 -1.671888 0.513987 -0.212901 -2.869712 0.513986 0.393388 -1.671890 0.393388 0.393388 -2.869714 0.393388 -0.212900 -1.671889 -0.513987 -0.212901 -2.869712 -0.513987 0.212900 -1.671889 0.513987 0.212900 -2.869713 0.513987 -0.000000 -1.671889 -0.556335 -0.000000 -2.869713 -0.556335 -0.000000 -1.671889 0.556335 -0.000000 -2.869712 0.556335 -0.000000 -1.671889 -0.556335 -0.000000 -2.869713 -0.556335 -0.434842 -1.671889 -0.180118 -0.513987 -1.671888 -0.212900 -0.470670 -1.671889 -0.000000 -0.556335 -1.671888 -0.000000 -0.434842 -1.671889 0.180118 -0.513987 -1.671888 0.212900 
						-0.332814 -1.671889 0.332814 -0.393388 -1.671888 0.393388 0.180118 -1.671889 0.434842 -0.000000 -1.671889 0.470670 -0.000000 -1.671889 0.556335 0.212900 -1.671889 0.513987 -0.180118 -1.671889 0.434842 -0.212900 -1.671888 0.513987 -0.195200 -2.869712 0.471254 -0.000000 -2.869712 0.510082 -0.000000 -2.869712 0.556335 -0.212901 -2.869712 0.513986 -0.360683 -2.869712 0.360682 -0.393389 -2.869712 0.393388 -0.471255 -2.869712 0.195200 -0.513987 -2.869711 0.212900 -0.510082 -2.869712 -0.000000 -0.556336 -2.869711 -0.000000 -0.471255 -2.869712 -0.195200 -0.513987 -2.869712 -0.212900 -0.360683 -2.869712 -0.360682 -0.393389 -2.869712 -0.393388 -0.195200 -2.869712 -0.471254 -0.212901 -2.869712 -0.513987 -0.000000 -2.869713 -0.510082 -0.000000 -2.869713 -0.556335 0.195200 -2.869713 -0.471254 0.212900 -2.869713 -0.513987 0.360682 -2.869714 -0.360682 0.393388 -2.869714 -0.393388 0.471254 -2.869714 -0.195200 0.513986 -2.869714 -0.212900 0.510082 -2.869714 -0.000000 0.556335 -2.869714 -0.000000 0.471254 -2.869714 0.195200 0.513986 -2.869714 0.212900 0.360682 -2.869714 0.360682 0.393388 -2.869714 0.393388 0.195200 -2.869713 0.471254 0.212900 -2.869713 0.513987 -0.000000 -2.317670 0.219217 -0.083891 -2.317670 0.202530 -0.155010 -2.317670 0.155010 -0.202530 -2.317670 0.083891 -0.219217 -2.317670 -0.000000 -0.202530 -2.317670 -0.083891 -0.155010 -2.317670 -0.155010 -0.083891 -2.317670 -0.202530 -0.000000 -2.317671 -0.219217 0.083891 -2.317671 -0.202530 0.155010 -2.317671 -0.155010 0.202530 -2.317671 -0.083891 0.219217 -2.317671 -0.000000 0.202530 -2.317671 0.083891 0.155010 -2.317671 0.155010 0.083891 -2.317671 0.202530 0.471254 -2.869714 0.195200 0.360682 -2.869714 0.360682 0.155010 -2.317671 0.155010 0.202530 -2.317671 0.083891 -0.360683 -2.869712 -0.360682 -0.195200 -2.869712 -0.471254 -0.083891 -2.317670 -0.202530 -0.155010 -2.317670 -0.155010 
						0.195200 -2.869713 0.471254 0.083891 -2.317671 0.202530 -0.000000 -2.869713 -0.510082 -0.000000 -2.317671 -0.219217 -0.000000 -2.869712 0.510082 -0.195200 -2.869712 0.471254 -0.083891 -2.317670 0.202530 -0.000000 -2.317670 0.219217 0.195200 -2.869713 -0.471254 0.083891 -2.317671 -0.202530 -0.360683 -2.869712 0.360682 -0.155010 -2.317670 0.155010 0.360682 -2.869714 -0.360682 0.155010 -2.317671 -0.155010 -0.471255 -2.869712 0.195200 -0.202530 -2.317670 0.083891 0.471254 -2.869714 -0.195200 0.202530 -2.317671 -0.083891 -0.510082 -2.869712 -0.000000 -0.219217 -2.317670 -0.000000 0.510082 -2.869714 -0.000000 0.219217 -2.317671 -0.000000 -0.471255 -2.869712 -0.195200 -0.202530 -2.317670 -0.083891 
					</float_array>
					<technique_common>
						<accessor count="600" offset="0" source="#meshId0-positions-array" stride="3">
							<param name="X" type="float" />
							<param name="Y" type="float" />
							<param name="Z" type="float" />
						</accessor>
					</technique_common>
				</source>
				<source id="meshId0-normals" name="meshId0-normals">
					<float_array id="meshId0-normals-array" count="1800"> 
						-0.382683 -0.000000 0.923880 -0.382684 -0.000000 0.923880 0.000000 -0.000000 1.000000 0.000000 -0.000000 1.000000 0.707107 -0.000000 0.707107 0.707107 -0.000000 0.707107 0.923880 -0.000000 0.382683 0.923880 -0.000000 0.382683 1.000000 -0.000000 0.000000 1.000000 -0.000000 0.000000 0.923880 0.000000 -0.382684 0.923880 0.000000 -0.382684 0.707107 0.000000 -0.707107 0.707107 0.000000 -0.707107 0.382684 0.000000 -0.923880 0.382684 0.000000 -0.923880 0.000000 0.000000 -1.000000 0.000000 0.000000 -1.000000 0.000000 0.000000 -1.000000 0.000000 0.000000 -1.000000 -0.382684 0.000000 -0.923880 -0.382684 0.000000 -0.923880 -0.707107 0.000000 -0.707107 -0.707107 0.000000 -0.707107 -0.923880 0.000000 -0.382684 -0.923880 0.000000 -0.382684 -1.000000 0.000000 0.000000 -1.000000 0.000000 0.000000 -0.923880 -0.000000 0.382683 -0.923880 -0.000000 0.382683 -0.707107 -0.000000 0.707107 -0.707107 -0.000000 0.707107 0.592736 0.767062 -0.245519 0.641573 0.767062 -0.000000 0.641573 0.767062 -0.000000 0.592736 0.767062 -0.245519 -0.382683 -0.000000 0.923880 0.000000 -0.000000 1.000000 0.000000 -0.000000 1.000000 -0.382683 -0.000000 0.923880 0.382684 -0.000000 0.923880 0.382683 -0.000000 0.923880 0.000000 -0.000000 1.000000 0.382683 -0.000000 0.923880 0.382684 -0.000000 0.923880 0.000000 -0.000000 1.000000 -0.707107 -0.000000 0.707107 -0.707107 -0.000000 0.707107 -0.382683 -0.000000 0.923880 -0.382683 -0.000000 0.923880 -0.923880 -0.000000 0.382684 -0.923880 -0.000000 0.382683 -1.000000 0.000000 0.000000 -1.000000 0.000000 -0.000000 -0.923880 0.000000 -0.382683 -0.923880 0.000000 -0.382683 -0.707107 0.000000 -0.707107 -0.707107 0.000000 -0.707107 -0.382683 0.000000 -0.923880 -0.382683 0.000000 -0.923880 0.000000 0.000000 -1.000000 0.000000 0.000000 -1.000000 0.382683 0.000000 -0.923880 0.382683 0.000000 -0.923880 
						0.000000 0.000000 -1.000000 0.000000 0.000000 -1.000000 0.707107 0.000000 -0.707107 0.707107 0.000000 -0.707107 0.923880 0.000000 -0.382683 0.923880 0.000000 -0.382683 1.000000 -0.000000 0.000000 1.000000 -0.000000 0.000000 0.923880 -0.000000 0.382684 0.923880 -0.000000 0.382683 0.707107 -0.000000 0.707107 0.707107 -0.000000 0.707107 0.382683 -0.000000 0.923880 0.382683 -0.000000 0.923880 0.000000 -0.000000 1.000000 0.000000 -0.000000 1.000000 0.788585 0.614925 -0.000000 0.728558 0.614925 0.301779 0.728558 0.614925 0.301778 0.788585 0.614925 -0.000000 -0.728558 0.614925 0.301779 -0.788585 0.614925 0.000000 -0.788585 0.614925 0.000000 -0.728558 0.614925 0.301779 0.728558 -0.614925 0.301779 0.788585 -0.614925 0.000000 0.788585 -0.614925 0.000000 0.728558 -0.614925 0.301779 -0.788585 -0.614925 -0.000000 -0.728558 -0.614925 0.301778 -0.728558 -0.614925 0.301779 -0.788585 -0.614925 -0.000000 -0.301779 0.614926 -0.728557 0.000000 0.614926 -0.788585 0.000000 0.614926 -0.788585 -0.301779 0.614926 -0.728557 0.000000 -0.614926 -0.788585 -0.301779 -0.614926 -0.728558 -0.301779 -0.614926 -0.728558 0.000000 -0.614926 -0.788585 0.728558 0.614925 -0.301779 0.728558 0.614925 -0.301779 -0.557614 0.614925 0.557614 -0.557614 0.614925 0.557614 0.728558 -0.614925 -0.301779 0.728558 -0.614925 -0.301778 -0.557614 -0.614926 0.557614 -0.557614 -0.614926 0.557614 -0.557614 0.614926 -0.557614 -0.557614 0.614926 -0.557614 0.301779 0.614925 0.728558 0.000000 0.614926 0.788585 0.000000 0.614926 0.788585 0.301779 0.614925 0.728558 -0.557614 -0.614925 -0.557614 -0.557614 -0.614925 -0.557614 0.557614 0.614925 -0.557614 0.557614 0.614925 -0.557614 -0.301779 0.614926 0.728558 -0.301779 0.614926 0.728558 0.000000 -0.614926 0.788585 0.301779 -0.614925 0.728558 0.301779 -0.614925 0.728558 0.000000 -0.614926 0.788585 
						-0.707107 -0.000000 0.707107 -0.707107 -0.000000 0.707107 -0.923880 -0.000000 0.382683 -0.923880 -0.000000 0.382683 -1.000000 0.000000 0.000000 -1.000000 0.000000 0.000000 -0.923880 0.000000 -0.382683 -0.923880 0.000000 -0.382683 -0.707107 0.000000 -0.707107 -0.707107 0.000000 -0.707107 -0.382683 0.000000 -0.923880 -0.382683 0.000000 -0.923880 0.000000 0.000000 -1.000000 0.000000 0.000000 -1.000000 0.382683 0.000000 -0.923880 0.000000 0.000000 -1.000000 0.000000 0.000000 -1.000000 0.382683 0.000000 -0.923880 0.707107 0.000000 -0.707107 0.707107 0.000000 -0.707107 0.923880 0.000000 -0.382683 0.923880 0.000000 -0.382683 1.000000 0.000000 0.000000 1.000000 0.000000 0.000000 0.923880 -0.000000 0.382683 0.923880 -0.000000 0.382683 0.707107 -0.000000 0.707107 0.707107 -0.000000 0.707107 0.382683 -0.000000 0.923880 0.382683 -0.000000 0.923880 0.301779 -0.614925 -0.728558 0.000000 -0.614926 -0.788585 0.000000 -0.614926 -0.788585 0.301779 -0.614925 -0.728558 0.000000 0.614926 -0.788585 0.301779 0.614925 -0.728558 0.301779 0.614925 -0.728558 0.000000 0.614926 -0.788585 -0.728558 -0.614925 -0.301779 -0.728558 -0.614925 -0.301779 0.557614 -0.614925 0.557614 0.557614 -0.614925 0.557614 -0.301779 -0.614926 0.728557 -0.301779 -0.614926 0.728557 -0.728558 0.614925 -0.301778 -0.728558 0.614925 -0.301779 0.557614 0.614925 0.557614 0.557614 0.614925 0.557614 0.557614 -0.614925 -0.557614 0.557614 -0.614925 -0.557614 -0.000000 1.000000 0.000000 -0.000000 1.000000 0.000000 -0.000000 1.000000 0.000000 -0.000000 1.000000 0.000000 -0.000000 1.000000 0.000000 -0.000000 1.000000 0.000000 -0.000000 1.000000 0.000000 -0.000000 1.000000 0.000000 -0.000000 1.000000 0.000000 -0.000000 1.000000 0.000000 -0.000000 1.000000 0.000000 -0.000000 1.000000 0.000000 -0.000000 1.000000 0.000000 -0.000000 1.000000 0.000000 
						-0.000000 1.000000 0.000000 -0.000000 1.000000 0.000000 -1.000000 -0.000000 -0.000000 -0.923880 -0.000000 0.382684 -0.923880 -0.000000 0.382684 -1.000000 -0.000000 -0.000000 0.923880 0.000000 -0.382683 0.707107 0.000000 -0.707107 0.707107 0.000000 -0.707107 0.923880 0.000000 -0.382683 -0.707107 -0.000000 -0.707107 -0.923880 -0.000000 -0.382684 -0.923880 -0.000000 -0.382683 -0.707107 -0.000000 -0.707107 -0.382684 -0.000000 0.923880 -0.382683 -0.000000 0.923880 0.923880 0.000000 0.382683 1.000000 0.000000 -0.000000 1.000000 0.000000 0.000000 0.923880 0.000000 0.382684 0.000000 0.000000 -1.000000 -0.382684 0.000000 -0.923880 -0.382683 0.000000 -0.923880 0.000000 0.000000 -1.000000 -0.707107 -0.000000 0.707107 -0.707107 -0.000000 0.707107 0.707107 0.000000 0.707107 0.707107 0.000000 0.707107 0.382684 0.000000 -0.923880 0.382684 0.000000 -0.923879 0.000000 0.000000 -1.000000 0.000000 0.000000 -1.000000 0.206489 -0.841935 -0.498506 0.000000 -0.841935 -0.539578 0.000000 -0.841935 -0.539578 0.206489 -0.841935 -0.498506 0.381541 -0.841934 0.381540 0.498507 -0.841934 0.206488 0.498507 -0.841934 0.206488 0.381541 -0.841934 0.381540 -0.381539 -0.841936 0.381540 -0.206487 -0.841936 0.498505 -0.206487 -0.841936 0.498505 -0.381539 -0.841936 0.381540 -0.206487 -0.841936 -0.498505 -0.381539 -0.841936 -0.381539 -0.381539 -0.841936 -0.381539 -0.206487 -0.841936 -0.498505 0.539581 -0.841934 -0.000000 0.498507 -0.841934 -0.206488 0.498507 -0.841934 -0.206488 0.539581 -0.841934 -0.000000 -0.498505 -0.841936 -0.206488 -0.539578 -0.841936 0.000000 -0.539578 -0.841936 0.000000 -0.498505 -0.841936 -0.206488 0.381541 -0.841934 -0.381540 0.381541 -0.841934 -0.381540 0.206489 -0.841935 0.498506 0.206489 -0.841935 0.498506 -0.498505 -0.841936 0.206488 -0.498505 -0.841936 0.206488 0.000000 -0.841935 -0.539578 0.000000 -0.841935 -0.539578 
						0.000000 -0.841935 0.539578 0.000000 -0.841935 0.539578 1.000000 -0.000000 0.000000 0.923880 -0.000000 0.382683 0.923880 -0.000000 0.382683 1.000000 0.000000 0.000000 -0.453660 0.767062 -0.453660 -0.245519 0.767063 -0.592735 -0.245519 0.767063 -0.592735 -0.453660 0.767062 -0.453660 -0.245519 0.767062 0.592736 -0.453660 0.767063 0.453660 -0.453660 0.767063 0.453660 -0.245519 0.767062 0.592736 0.592736 0.767062 0.245519 0.453660 0.767062 0.453660 0.453660 0.767062 0.453660 0.592736 0.767062 0.245519 0.000000 0.767063 -0.641572 0.245519 0.767062 -0.592736 0.245519 0.767062 -0.592736 -0.000000 0.767063 -0.641572 0.245519 0.767062 0.592736 0.000000 0.767062 0.641573 0.000000 0.767062 0.641573 0.245519 0.767062 0.592736 -0.592736 0.767062 0.245519 -0.641573 0.767062 -0.000000 -0.641573 0.767062 -0.000000 -0.592736 0.767062 0.245519 0.453660 0.767062 -0.453660 0.453660 0.767062 -0.453660 -0.592736 0.767062 -0.245519 -0.592736 0.767062 -0.245519 0.000000 0.767063 -0.641572 -0.000000 0.767063 -0.641572 -1.000000 -0.000000 0.000000 -0.923880 0.000000 -0.382683 -0.923880 0.000000 -0.382683 -1.000000 0.000000 0.000000 0.923880 0.000000 -0.382683 0.923880 0.000000 -0.382683 -0.923880 -0.000000 0.382683 -0.923880 -0.000000 0.382683 0.707107 0.000000 -0.707107 0.707107 0.000000 -0.707107 -0.707107 0.000000 0.707107 -0.707107 0.000000 0.707107 0.382683 0.000000 -0.923880 0.382683 0.000000 -0.923880 -0.382683 -0.000000 0.923880 -0.382683 -0.000000 0.923880 -0.000000 0.000000 -1.000000 -0.000000 0.000000 -1.000000 0.382683 0.000000 0.923880 -0.000000 -0.000000 1.000000 -0.000000 -0.000000 1.000000 0.382683 0.000000 0.923880 -0.382683 -0.000000 -0.923880 -0.000000 0.000000 -1.000000 -0.000000 0.000000 -1.000000 -0.382683 -0.000000 -0.923880 0.707107 0.000000 0.707107 0.707107 0.000000 0.707107 
						-0.707107 0.000000 -0.707107 -0.707107 0.000000 -0.707107 0.000003 1.000000 -0.000001 0.000003 1.000000 0.000000 0.000003 1.000000 0.000000 0.000003 1.000000 -0.000001 0.000003 1.000000 0.000001 0.000003 1.000000 0.000001 0.000002 1.000000 0.000001 0.000002 1.000000 0.000001 0.000000 1.000000 0.000001 0.000000 1.000000 0.000000 0.000000 1.000000 0.000000 0.000000 1.000000 0.000001 0.000001 1.000000 0.000001 0.000001 1.000000 0.000001 0.000001 1.000000 -0.000000 0.000001 1.000000 -0.000000 0.000002 1.000000 -0.000001 0.000002 1.000000 -0.000001 0.000002 1.000000 -0.000000 0.000002 1.000000 -0.000000 -0.382684 0.000000 -0.923880 0.000000 0.000000 -1.000000 0.000000 0.000000 -1.000000 -0.382684 0.000000 -0.923880 0.707107 -0.000000 0.707107 0.382683 -0.000000 0.923880 0.382683 -0.000000 0.923880 0.707107 -0.000000 0.707107 -0.707107 0.000000 -0.707107 -0.707107 0.000000 -0.707107 0.923880 -0.000000 0.382684 0.923880 -0.000000 0.382684 -0.923880 0.000000 -0.382684 -0.923879 0.000000 -0.382684 1.000000 -0.000000 0.000000 1.000000 -0.000000 0.000000 -1.000000 0.000000 0.000000 -1.000000 0.000000 0.000000 0.923879 -0.000000 -0.382684 0.923879 -0.000000 -0.382684 -0.923880 0.000000 0.382683 -0.923880 0.000000 0.382683 0.707107 -0.000000 -0.707107 0.707107 -0.000000 -0.707107 -0.707107 0.000000 0.707107 -0.707107 0.000000 0.707107 0.382684 -0.000000 -0.923880 0.382684 -0.000000 -0.923879 -0.382683 0.000000 0.923880 -0.382683 0.000000 0.923880 0.000000 0.000000 -1.000000 0.000000 0.000000 -1.000000 0.000000 0.000000 1.000000 0.000000 0.000000 1.000000 0.000002 1.000000 -0.000001 0.000002 1.000000 -0.000001 0.000001 1.000000 -0.000001 0.000001 1.000000 -0.000001 0.000000 1.000000 -0.000001 0.000000 1.000000 -0.000001 0.000000 1.000000 0.000000 0.000000 1.000000 0.000000 
						0.000000 1.000000 0.000000 0.000000 1.000000 0.000000 0.000001 1.000000 0.000000 0.000001 1.000000 0.000000 0.000001 1.000000 -0.000002 0.000001 1.000000 -0.000001 0.000001 1.000000 -0.000001 0.000001 1.000000 -0.000002 0.000001 1.000000 0.000000 0.000000 1.000000 -0.000002 0.000000 1.000000 -0.000002 0.000001 1.000000 0.000000 0.000005 1.000000 0.000003 0.000002 1.000000 0.000001 0.000002 1.000000 0.000001 0.000005 1.000000 0.000003 0.000000 1.000000 -0.000001 0.000000 1.000000 -0.000001 -0.923880 0.000000 -0.382683 -0.707107 0.000000 -0.707107 -0.707107 0.000000 -0.707107 -0.923879 0.000000 -0.382684 0.000000 1.000000 0.000000 0.000000 1.000000 0.000000 0.000001 1.000000 -0.000002 0.000001 1.000000 -0.000002 0.000000 1.000000 0.000000 0.000000 1.000000 0.000000 0.000000 1.000000 -0.000002 0.000000 1.000000 -0.000002 0.000003 1.000000 -0.000004 0.000003 1.000000 -0.000004 0.000000 1.000000 -0.000002 0.000000 1.000000 -0.000002 0.000007 1.000000 -0.000005 0.000007 1.000000 -0.000005 1.000000 0.000000 0.000000 0.923880 0.000000 0.382683 0.923880 0.000000 0.382683 1.000000 0.000000 0.000000 -1.000000 0.000000 0.000000 -0.923880 -0.000000 -0.382683 -0.923880 -0.000000 -0.382683 -1.000000 0.000000 0.000000 0.923880 -0.000000 -0.382684 0.923880 -0.000000 -0.382684 -0.923879 0.000000 0.382684 -0.923879 0.000000 0.382684 0.707107 -0.000000 -0.707106 0.707107 -0.000000 -0.707106 -0.707107 0.000000 0.707107 -0.707106 0.000000 0.707107 0.382684 -0.000000 -0.923879 0.382684 -0.000000 -0.923879 -0.382683 0.000000 0.923880 -0.382683 0.000000 0.923880 0.000000 0.000000 -1.000000 -0.000000 0.000000 -1.000000 0.382684 -0.000000 0.923879 0.000000 -0.000000 1.000000 0.000000 0.000000 1.000000 0.382684 -0.000000 0.923879 -0.382683 0.000000 -0.923880 0.000000 0.000000 -1.000000 
						-0.000000 0.000000 -1.000000 -0.382683 0.000000 -0.923880 0.707107 -0.000000 0.707106 0.707107 -0.000000 0.707106 -0.707107 0.000000 -0.707107 -0.707107 0.000000 -0.707107 0.000001 1.000000 0.000000 0.000001 1.000000 0.000000 0.000000 1.000000 -0.000000 0.000000 1.000000 -0.000000 0.000000 1.000000 -0.000000 0.000000 1.000000 -0.000000 0.000010 1.000000 -0.000004 0.000010 1.000000 -0.000004 0.000000 1.000000 0.000000 0.000000 1.000000 0.000000 0.000010 1.000000 -0.000001 0.000010 1.000000 -0.000001 0.000001 1.000000 0.000000 0.000001 1.000000 0.000000 0.000001 1.000000 0.000000 0.000001 1.000000 0.000000 0.000000 1.000000 0.000000 0.000000 1.000000 0.000000 0.000008 1.000000 0.000003 0.000008 1.000000 0.000003 0.000005 1.000000 0.000004 0.000005 1.000000 0.000004 -1.000000 0.000000 0.000000 -1.000000 0.000000 -0.000000 1.000000 -0.000000 0.000000 0.923880 -0.000000 0.382684 0.923880 -0.000000 0.382683 1.000000 -0.000000 -0.000000 -0.923880 0.000000 0.382683 -0.923880 0.000000 0.382683 0.707106 -0.000000 -0.707107 0.923879 -0.000000 -0.382684 0.923879 -0.000000 -0.382684 0.707107 -0.000000 -0.707107 -0.707107 0.000000 0.707107 -0.707107 0.000000 0.707107 0.382683 -0.000000 -0.923880 0.382684 -0.000000 -0.923880 -0.382684 0.000000 0.923879 -0.382683 0.000000 0.923880 0.707107 -0.000000 0.707107 0.707107 -0.000000 0.707107 -0.382684 0.000000 -0.923880 -0.382683 0.000000 -0.923880 0.382683 -0.000000 0.923880 0.382684 -0.000000 0.923879 -0.000000 -0.000000 -1.000000 0.000000 -0.000000 -1.000000 -0.000000 -0.000000 1.000000 0.000000 -0.000000 1.000000 -0.000000 -0.000000 -1.000000 0.000000 -0.000000 -1.000000 0.000008 1.000000 0.000002 0.000008 1.000000 0.000002 0.000010 1.000000 -0.000000 0.000010 1.000000 -0.000000 0.000010 1.000000 -0.000004 0.000010 1.000000 -0.000004 
						0.000006 1.000000 -0.000005 0.000006 1.000000 -0.000005 0.000002 1.000000 0.000002 0.000001 1.000000 -0.000002 0.000001 1.000000 -0.000002 0.000002 1.000000 0.000002 0.000003 1.000000 -0.000004 0.000003 1.000000 -0.000004 -0.000001 -1.000000 -0.000003 -0.000001 -1.000000 -0.000003 -0.000001 -1.000000 -0.000003 -0.000001 -1.000000 -0.000003 -0.000002 -1.000000 0.000000 -0.000002 -1.000000 0.000000 -0.000004 -1.000000 0.000000 -0.000004 -1.000000 0.000000 -0.000005 -1.000000 0.000001 -0.000005 -1.000000 0.000001 -0.000004 -1.000000 0.000000 -0.000004 -1.000000 0.000000 -0.000002 -1.000000 0.000003 -0.000002 -1.000000 0.000003 -0.000002 -1.000000 0.000003 -0.000002 -1.000000 0.000003 -0.000002 -1.000000 0.000003 -0.000002 -1.000000 0.000003 -0.000002 -1.000000 0.000000 -0.000002 -1.000000 -0.000000 -0.000001 -1.000000 -0.000003 -0.000001 -1.000000 -0.000003 0.000000 -1.000000 0.000000 0.000000 -1.000000 0.000000 -0.000001 -1.000000 0.000000 -0.000001 -1.000000 0.000000 -0.000003 -1.000000 -0.000002 -0.000003 -1.000000 -0.000002 -0.000003 -1.000000 -0.000002 -0.000003 -1.000000 -0.000002 -0.000003 -1.000000 0.000000 -0.000003 -1.000000 0.000000 -0.000002 -1.000000 0.000001 -0.000002 -1.000000 0.000001 -0.000002 -1.000000 0.000001 -0.000002 -1.000000 0.000001 -0.000002 -1.000000 0.000001 -0.000002 -1.000000 0.000001 -0.000002 -1.000000 0.000001 -0.000002 -1.000000 0.000001 -0.000002 -1.000000 0.000001 -0.000002 -1.000000 0.000001 -0.000002 -1.000000 0.000001 -0.000002 -1.000000 0.000001 -0.000002 -1.000000 0.000001 -0.000002 -1.000000 0.000001 -0.000002 -1.000000 0.000001 -0.000002 -1.000000 0.000001 -0.817365 -0.466143 -0.338563 -0.625585 -0.466143 -0.625583 -0.625585 -0.466143 -0.625583 -0.817365 -0.466143 -0.338563 0.625583 -0.466143 0.625584 0.338562 -0.466143 0.817365 0.338563 -0.466143 0.817365 0.625584 -0.466143 0.625584 
						-0.338565 -0.466143 -0.817364 -0.338565 -0.466143 -0.817364 -0.000001 -0.466143 0.884709 -0.000001 -0.466143 0.884709 -0.000000 -0.466143 -0.884709 0.338563 -0.466144 -0.817365 0.338563 -0.466144 -0.817365 -0.000000 -0.466143 -0.884709 -0.338565 -0.466143 0.817365 -0.338564 -0.466143 0.817365 0.625583 -0.466144 -0.625584 0.625584 -0.466144 -0.625584 -0.625585 -0.466142 0.625584 -0.625584 -0.466142 0.625584 0.817364 -0.466144 -0.338564 0.817365 -0.466144 -0.338564 -0.817365 -0.466142 0.338564 -0.817365 -0.466143 0.338564 0.884709 -0.466144 0.000000 0.884709 -0.466144 -0.000000 -0.884710 -0.466143 0.000001 -0.884710 -0.466143 0.000000 0.817364 -0.466144 0.338564 0.817365 -0.466143 0.338564 
					</float_array>
					<technique_common>
						<accessor count="600" offset="0" source="#meshId0-normals-array" stride="3">
							<param name="X" type="float" />
							<param name="Y" type="float" />
							<param name="Z" type="float" />
						</accessor>
					</technique_common>
				</source>
				<source id="meshId0-tangents" name="meshId0-tangents">
					<float_array id="meshId0-tangents-array" count="1800"> 
						-0.000000 -1.000000 -0.000000 -0.000000 -1.000000 -0.000000 -0.000000 -1.000000 -0.000000 0.000000 -1.000000 -0.000000 -0.000000 -1.000000 -0.000000 -0.000000 -1.000000 0.000000 -0.000000 -1.000000 0.000000 -0.000000 -1.000000 0.000000 -0.000000 -1.000000 0.000000 -0.000000 -1.000000 0.000000 0.000000 -1.000000 0.000000 0.000000 -1.000000 0.000000 0.000000 -1.000000 0.000000 0.000000 -1.000000 0.000000 0.000001 -1.000000 0.000000 0.000000 -1.000000 0.000000 0.000001 -1.000000 -0.000000 0.000001 -1.000000 -0.000000 0.000000 -1.000000 -0.000000 -0.000000 -1.000000 -0.000000 0.000000 -1.000000 -0.000000 0.000000 -1.000000 -0.000000 0.000000 -1.000000 -0.000000 0.000000 -1.000000 -0.000000 0.000000 -1.000000 -0.000000 0.000000 -1.000000 -0.000000 -0.000000 -1.000000 -0.000000 -0.000000 -1.000000 -0.000000 -0.000000 -1.000000 -0.000000 -0.000000 -1.000000 -0.000000 -0.000000 -1.000000 -0.000000 -0.000000 -1.000000 -0.000000 -0.680974 0.640084 0.355763 -0.716147 0.598987 0.358257 -0.716147 0.598987 0.358257 -0.680974 0.640084 0.355763 -0.635574 -0.725767 -0.263263 -0.695474 -0.718551 -0.000000 -0.688699 -0.725048 -0.000000 -0.634743 -0.726619 -0.262919 -0.000000 -1.000000 -0.000000 -0.000000 -1.000000 -0.000000 -1.000000 -0.000001 0.000000 -0.923880 -0.000001 0.382683 -0.923879 -0.000001 0.382684 -1.000000 0.000000 0.000000 -0.495126 -0.713933 -0.495126 -0.495126 -0.713933 -0.495126 -0.646914 -0.713933 -0.267960 -0.646914 -0.713933 -0.267960 -0.267961 -0.713932 -0.646914 -0.267961 -0.713932 -0.646914 -0.000000 -0.713932 -0.700215 -0.000000 -0.713932 -0.700215 0.267961 -0.713932 -0.646914 0.267961 -0.713932 -0.646914 0.495126 -0.713933 -0.495126 0.495126 -0.713933 -0.495126 0.646913 -0.713933 -0.267960 0.646913 -0.713933 -0.267960 0.700213 -0.713934 -0.000000 0.700213 -0.713934 -0.000000 0.646915 -0.713932 0.267961 0.646915 -0.713932 0.267961 
						0.700215 -0.713932 -0.000000 0.700215 -0.713932 -0.000000 0.495127 -0.713932 0.495127 0.495127 -0.713932 0.495127 0.267961 -0.713932 0.646914 0.267961 -0.713932 0.646914 -0.000000 -0.713932 0.700215 -0.000000 -0.713932 0.700215 -0.267961 -0.713932 0.646914 -0.267961 -0.713932 0.646914 -0.495127 -0.713932 0.495127 -0.495127 -0.713932 0.495127 -0.646914 -0.713932 0.267961 -0.646914 -0.713932 0.267961 -0.700215 -0.713932 -0.000000 -0.700215 -0.713932 -0.000000 0.435903 -0.559005 0.705338 0.133131 -0.559279 0.818220 0.107183 -0.537478 0.836439 0.413826 -0.530694 0.739670 -0.675991 -0.574299 -0.461754 -0.448977 -0.575772 -0.683306 -0.427112 -0.547732 -0.719420 -0.669549 -0.546304 -0.503246 -0.676758 -0.578115 0.455830 -0.437975 -0.561663 0.701935 -0.416587 -0.534234 0.735560 -0.669630 -0.546624 0.502790 0.448090 -0.574634 -0.684844 0.154152 -0.576450 -0.802460 0.115902 -0.544877 -0.830467 0.425489 -0.545650 -0.721960 0.413686 -0.604035 -0.681179 0.526360 -0.670504 -0.522848 0.541854 -0.662784 -0.516828 0.434068 -0.591764 -0.679265 0.851520 -0.413473 0.322419 0.841440 -0.531072 0.099705 0.852791 -0.515762 0.082082 0.855732 -0.408030 0.318175 0.676187 -0.575261 0.460268 0.668830 -0.543502 0.507220 -0.801395 -0.573911 -0.168498 -0.811327 -0.545785 -0.209446 -0.141196 -0.565919 0.812280 -0.116614 -0.545478 0.829973 -0.191569 -0.558282 -0.807232 -0.230935 -0.530307 -0.815747 0.169462 -0.573268 -0.801652 0.201871 -0.551121 -0.809638 -0.461602 -0.574398 0.676011 -0.685304 -0.574293 0.447824 -0.722282 -0.545384 0.425282 -0.505951 -0.544399 0.669062 0.806275 -0.561001 -0.187614 0.814446 -0.535123 -0.224323 0.804591 -0.565628 0.180828 0.813620 -0.538061 0.220258 -0.804809 -0.573980 0.151094 -0.829869 -0.545604 0.116764 -0.683678 -0.575497 -0.448763 -0.803415 -0.575450 -0.152912 -0.830043 -0.545392 -0.116513 -0.716975 -0.549722 -0.428664 
						-0.481986 -0.731696 -0.481986 -0.485007 -0.727693 -0.485007 -0.261048 -0.731210 -0.630226 -0.262038 -0.728788 -0.632617 0.000000 -0.728252 -0.685309 0.000000 -0.730391 -0.683029 0.264281 -0.723238 -0.638030 0.260142 -0.733413 -0.628038 0.495798 -0.713000 -0.495798 0.476416 -0.738956 -0.476416 0.663408 -0.695974 -0.274792 0.613056 -0.748117 -0.253936 0.729757 -0.683707 -0.000000 0.659494 -0.751710 -0.000000 0.609943 -0.751092 0.252647 0.643997 -0.765028 -0.000000 0.742903 -0.669399 -0.000000 0.669259 -0.689379 0.277216 0.483530 -0.729656 0.483530 0.495659 -0.713193 0.495659 0.261814 -0.729338 0.632075 0.263549 -0.725058 0.636264 0.000000 -0.732459 0.680811 0.000000 -0.729364 0.684126 -0.261304 -0.730586 0.630844 -0.263695 -0.724696 0.636617 -0.485308 -0.727291 0.485308 -0.492319 -0.717806 0.492319 -0.640042 -0.721152 0.265114 -0.641130 -0.720019 0.265565 0.393886 -0.615499 0.682653 0.521156 -0.673027 0.524815 0.546696 -0.660307 0.514896 0.427713 -0.595643 0.679905 0.849177 -0.416459 -0.324748 0.839828 -0.533158 -0.102133 0.852495 -0.516175 -0.082553 0.855278 -0.408621 -0.318636 0.675290 -0.570929 -0.466929 0.668690 -0.542963 -0.507981 -0.800239 -0.576764 0.164196 -0.810907 -0.547136 0.207537 -0.485090 -0.558832 -0.672603 -0.515910 -0.537298 -0.667194 -0.157652 -0.579266 -0.799748 -0.122535 -0.550456 -0.825822 -0.166312 -0.575363 0.800810 -0.204241 -0.549459 0.810173 0.143397 -0.590288 0.794354 0.177023 -0.568201 0.803623 -1.000000 -0.000000 -0.000001 -1.000000 -0.000000 -0.000001 -1.000000 -0.000000 -0.000001 -1.000000 -0.000000 -0.000001 -1.000000 -0.000000 -0.000001 -1.000000 -0.000000 -0.000000 -1.000000 -0.000000 -0.000000 -1.000000 -0.000000 0.000001 -1.000000 -0.000000 -0.000001 -1.000000 -0.000000 -0.000002 -1.000000 -0.000000 0.000002 -1.000000 -0.000000 0.000001 -1.000000 -0.000000 0.000001 -1.000000 -0.000000 -0.000002 
						-1.000000 -0.000000 0.000001 -1.000000 -0.000000 -0.000000 0.000000 0.000002 -1.000000 -0.382684 0.000003 -0.923880 -0.382684 0.000002 -0.923880 0.000000 0.000001 -1.000000 0.382683 -0.000000 0.923880 0.707107 0.000001 0.707107 0.707107 -0.000000 0.707107 0.382683 -0.000000 0.923880 0.707107 0.000000 -0.707107 0.382684 -0.000001 -0.923880 0.382683 -0.000001 -0.923879 0.707107 0.000000 -0.707107 -0.923879 -0.000000 -0.382683 -0.923880 0.000001 -0.382683 -0.382683 -0.000000 0.923879 0.000000 -0.000000 1.000000 -0.000000 -0.000000 1.000000 -0.382684 -0.000000 0.923879 1.000000 0.000000 0.000000 0.923879 0.000000 -0.382684 0.923880 0.000000 -0.382683 1.000000 0.000000 0.000000 -0.707107 0.000000 -0.707107 -0.707107 0.000000 -0.707107 -0.707107 -0.000000 0.707107 -0.707107 -0.000000 0.707107 0.923880 -0.000000 0.382684 0.923879 -0.000001 0.382684 1.000000 -0.000001 0.000000 1.000000 -0.000002 0.000000 -0.463222 0.364655 -0.807745 -0.478694 0.473740 -0.739204 -0.478694 0.473740 -0.739204 -0.463222 0.364655 -0.807745 -0.039327 -0.427177 -0.903312 -0.109118 -0.297244 -0.948546 -0.109118 -0.297244 -0.948546 -0.039327 -0.427177 -0.903312 0.039333 -0.427178 -0.903312 0.007146 -0.510769 -0.859688 0.007146 -0.510769 -0.859688 0.039332 -0.427178 -0.903312 0.463221 0.364655 -0.807746 0.410110 0.215729 -0.886155 0.410110 0.215729 -0.886155 0.463221 0.364655 -0.807746 -0.210065 -0.134627 -0.968374 -0.319565 0.042942 -0.946591 -0.319566 0.042942 -0.946591 -0.210065 -0.134627 -0.968374 0.319567 0.042941 -0.946590 0.210065 -0.134626 -0.968374 0.210066 -0.134627 -0.968374 0.319567 0.042941 -0.946590 -0.410110 0.215729 -0.886155 -0.410111 0.215729 -0.886155 -0.007144 -0.510770 -0.859688 -0.007144 -0.510770 -0.859688 0.109122 -0.297245 -0.948545 0.109123 -0.297246 -0.948545 0.478693 0.473740 -0.739204 0.478693 0.473741 -0.739204 
						0.000002 -0.539578 -0.841935 0.000002 -0.539578 -0.841935 0.000000 0.713933 -0.700214 0.267960 0.713933 -0.646913 0.267960 0.713933 -0.646913 0.000000 0.713933 -0.700214 -0.689279 -0.624687 -0.366960 -0.719432 -0.553997 -0.418933 -0.719432 -0.553997 -0.418933 -0.689279 -0.624687 -0.366960 -0.969380 -0.191260 -0.154020 -0.890074 -0.364700 -0.273428 -0.890074 -0.364700 -0.273428 -0.969380 -0.191260 -0.154020 -0.793723 0.504624 0.339644 -0.890074 0.364699 0.273429 -0.890074 0.364699 0.273429 -0.793723 0.504624 0.339644 -0.736955 0.433665 0.518489 -0.719432 0.553997 0.418932 -0.719432 0.553997 0.418932 -0.736955 0.433666 0.518490 -0.969380 0.191259 0.154021 -1.000000 0.000001 -0.000001 -1.000000 0.000001 -0.000001 -0.969380 0.191259 0.154021 -0.793723 -0.504625 -0.339644 -0.716147 -0.598987 -0.358257 -0.716147 -0.598987 -0.358256 -0.793723 -0.504625 -0.339644 -0.689279 0.624687 0.366960 -0.689279 0.624687 0.366960 -0.680974 -0.640084 -0.355763 -0.680974 -0.640084 -0.355762 -0.736953 -0.433667 -0.518491 -0.736953 -0.433667 -0.518491 0.000000 0.713933 0.700214 -0.267960 0.713933 0.646914 -0.267960 0.713933 0.646914 0.000000 0.713933 0.700214 -0.267960 0.713933 -0.646913 -0.267960 0.713933 -0.646913 0.267960 0.713933 0.646914 0.267960 0.713933 0.646914 -0.495126 0.713933 -0.495126 -0.495126 0.713933 -0.495126 0.495126 0.713933 0.495126 0.495126 0.713933 0.495126 -0.646914 0.713933 -0.267960 -0.646914 0.713933 -0.267960 0.646914 0.713933 0.267960 0.646914 0.713933 0.267960 -0.700214 0.713933 0.000000 -0.700214 0.713933 0.000000 0.646913 0.713933 -0.267960 0.700214 0.713933 0.000000 0.700214 0.713933 0.000000 0.646913 0.713933 -0.267960 -0.646914 0.713932 0.267961 -0.700214 0.713933 0.000000 -0.700214 0.713933 0.000000 -0.646915 0.713932 0.267961 0.495126 0.713933 -0.495126 0.495126 0.713933 -0.495126 
						-0.495126 0.713933 0.495126 -0.495126 0.713933 0.495126 -0.000002 -0.000001 -1.000000 -0.000002 0.000000 -1.000000 -0.000002 0.000000 -1.000000 -0.000002 -0.000001 -1.000000 -0.000003 0.000001 -1.000000 -0.000003 0.000001 -1.000000 -0.000002 0.000001 -1.000000 -0.000002 0.000001 -1.000000 -0.000000 0.000001 -1.000000 -0.000003 0.000000 -1.000000 -0.000003 0.000000 -1.000000 -0.000001 0.000001 -1.000000 -0.000003 0.000001 -1.000000 -0.000002 0.000001 -1.000000 -0.000004 -0.000000 -1.000000 -0.000004 -0.000000 -1.000000 -0.000002 -0.000001 -1.000000 -0.000002 -0.000001 -1.000000 -0.000001 0.000000 -1.000000 -0.000001 0.000000 -1.000000 0.000000 1.000000 -0.000000 0.000000 1.000000 0.000000 -0.000001 1.000000 0.000000 0.000000 1.000000 0.000000 0.000000 1.000000 -0.000000 0.000000 1.000000 -0.000000 0.000000 1.000000 -0.000000 0.000000 1.000000 -0.000000 0.000000 1.000000 -0.000000 0.000000 1.000000 -0.000000 0.000000 1.000000 -0.000000 0.000000 1.000000 -0.000000 0.000000 1.000000 0.000000 0.000000 1.000000 -0.000000 0.000000 1.000000 -0.000000 0.000000 1.000000 -0.000000 0.000000 1.000000 0.000000 0.000000 1.000000 0.000000 0.000000 1.000000 -0.000000 0.000000 1.000000 -0.000000 0.000000 1.000000 0.000000 0.000000 1.000000 0.000000 0.000000 1.000000 -0.000000 -0.000000 1.000000 -0.000000 0.000000 1.000000 0.000000 0.000000 1.000000 0.000000 0.000000 1.000000 0.000000 0.000000 1.000000 -0.000000 0.000000 1.000000 0.000000 0.000000 1.000000 0.000000 0.000000 1.000000 0.000000 0.000000 1.000000 0.000000 0.000000 1.000000 -0.000000 0.000000 1.000000 -0.000000 -0.000003 -0.000001 -1.000000 -0.000003 -0.000001 -1.000000 -0.000003 -0.000001 -1.000000 -0.000003 -0.000001 -1.000000 -0.000004 -0.000001 -1.000000 -0.000004 -0.000001 -1.000000 0.000002 0.000000 -1.000000 0.000002 0.000000 -1.000000 
						0.000001 -0.000000 -1.000000 0.000001 -0.000000 -1.000000 0.000002 0.000000 -1.000000 0.000002 0.000000 -1.000000 1.000000 -0.000001 -0.000004 1.000000 -0.000001 -0.000001 1.000000 -0.000001 0.000000 1.000000 -0.000001 -0.000004 1.000000 -0.000001 0.000001 1.000000 -0.000000 0.000000 1.000000 -0.000000 0.000000 1.000000 -0.000001 0.000001 0.707108 -0.000001 -0.707106 0.707107 -0.000001 -0.707106 0.707107 -0.000001 -0.707107 0.707107 -0.000001 -0.707106 1.000000 0.000000 0.000006 1.000000 0.000000 0.000006 0.267960 -0.713932 -0.646914 0.495126 -0.713933 -0.495126 0.495126 -0.713933 -0.495126 0.267961 -0.713932 -0.646914 1.000000 0.000000 0.000000 1.000000 0.000000 0.000000 0.707106 -0.000002 -0.707108 0.707105 -0.000002 -0.707109 1.000000 0.000000 0.000000 1.000000 -0.000000 -0.000000 1.000000 -0.000000 -0.000001 1.000000 -0.000000 -0.000001 0.707105 -0.000005 -0.707108 0.707105 -0.000005 -0.707108 1.000000 -0.000000 0.000000 1.000000 -0.000000 0.000000 0.707107 -0.000008 -0.707107 0.707107 -0.000008 -0.707107 0.000000 0.713933 -0.700214 0.267960 0.713933 -0.646913 0.267960 0.713933 -0.646913 0.000000 0.713933 -0.700214 0.000000 0.713934 0.700213 -0.267961 0.713930 0.646916 -0.267961 0.713930 0.646916 0.000000 0.713934 0.700213 -0.267961 0.713931 -0.646915 -0.267961 0.713931 -0.646915 0.267961 0.713934 0.646913 0.267961 0.713934 0.646912 -0.495126 0.713932 -0.495127 -0.495127 0.713932 -0.495128 0.495127 0.713932 0.495127 0.495127 0.713932 0.495126 -0.646913 0.713933 -0.267961 -0.646913 0.713933 -0.267961 0.646914 0.713932 0.267961 0.646915 0.713932 0.267961 -0.700213 0.713934 -0.000000 -0.700213 0.713934 0.000000 0.646911 0.713935 -0.267960 0.700212 0.713935 -0.000000 0.700213 0.713934 -0.000000 0.646911 0.713935 -0.267959 -0.646914 0.713932 0.267961 -0.700215 0.713932 -0.000000 
						-0.700215 0.713932 0.000000 -0.646914 0.713932 0.267961 0.495126 0.713933 -0.495127 0.495126 0.713933 -0.495127 -0.495125 0.713934 0.495126 -0.495125 0.713934 0.495125 1.000000 -0.000001 -0.000001 1.000000 -0.000001 -0.000001 1.000000 0.000000 0.000007 1.000000 0.000000 0.000006 1.000000 0.000000 0.000007 1.000000 0.000000 0.000007 0.707106 -0.000010 -0.707107 0.707106 -0.000010 -0.707107 1.000000 0.000000 0.000006 1.000000 0.000000 0.000006 0.707106 -0.000008 -0.707108 0.707106 -0.000008 -0.707108 1.000000 -0.000001 -0.000001 1.000000 -0.000001 -0.000001 1.000000 -0.000001 0.000002 1.000000 -0.000001 0.000001 1.000000 -0.000000 0.000005 1.000000 -0.000000 0.000004 0.707106 -0.000004 -0.707107 0.707106 -0.000004 -0.707107 0.707106 -0.000001 -0.707108 0.707106 -0.000001 -0.707107 -0.000000 -0.713932 -0.700215 -0.000000 -0.713933 -0.700215 -0.000000 -0.713932 0.700215 -0.267961 -0.713933 0.646913 -0.267961 -0.713933 0.646914 -0.000000 -0.713933 0.700214 -0.267961 -0.713932 -0.646914 -0.267961 -0.713932 -0.646914 0.495127 -0.713932 0.495127 0.267961 -0.713932 0.646914 0.267961 -0.713932 0.646914 0.495127 -0.713932 0.495127 -0.495126 -0.713932 -0.495127 -0.495127 -0.713932 -0.495127 0.646914 -0.713932 0.267960 0.646914 -0.713932 0.267961 -0.646914 -0.713932 -0.267961 -0.646914 -0.713932 -0.267961 -0.495126 -0.713933 0.495126 -0.495126 -0.713932 0.495126 0.646914 -0.713932 -0.267961 0.646914 -0.713933 -0.267960 -0.646914 -0.713932 0.267960 -0.646914 -0.713932 0.267961 0.700215 -0.713932 -0.000000 0.700215 -0.713932 0.000000 -0.700215 -0.713932 -0.000000 -0.700215 -0.713932 0.000000 0.700214 -0.713933 -0.000000 0.700214 -0.713933 0.000000 0.707107 -0.000004 -0.707107 0.707107 -0.000004 -0.707107 0.707106 -0.000007 -0.707107 0.707106 -0.000007 -0.707107 0.707104 -0.000010 -0.707109 0.707104 -0.000010 -0.707109 
						0.707107 -0.000008 -0.707107 0.707106 -0.000008 -0.707107 0.707108 -0.000000 -0.707105 0.707106 -0.000002 -0.707108 0.707106 -0.000002 -0.707107 0.707108 -0.000000 -0.707105 0.707109 -0.000005 -0.707104 0.707109 -0.000005 -0.707105 -0.707108 0.000003 -0.707105 -0.707106 0.000003 -0.707107 -0.707106 0.000003 -0.707107 -0.707108 0.000003 -0.707105 -0.707107 0.000002 -0.707106 -0.707107 0.000002 -0.707106 -0.707107 0.000002 -0.707106 -0.707107 0.000002 -0.707106 -0.707110 0.000003 -0.707103 -0.707110 0.000003 -0.707103 -0.707105 0.000003 -0.707109 -0.707105 0.000003 -0.707108 -0.707107 -0.000001 -0.707107 -0.707107 -0.000001 -0.707107 -0.707105 -0.000001 -0.707109 -0.707105 -0.000001 -0.707109 -0.707107 -0.000001 -0.707107 -0.707106 -0.000001 -0.707107 -0.707109 0.000001 -0.707105 -0.707109 0.000001 -0.707105 -0.707107 0.000003 -0.707107 -0.707107 0.000003 -0.707107 -0.707110 -0.000000 -0.707104 -0.707110 -0.000000 -0.707104 -0.707110 0.000001 -0.707103 -0.707111 0.000001 -0.707103 -0.707105 0.000003 -0.707109 -0.707105 0.000003 -0.707109 -0.707111 0.000003 -0.707102 -0.707111 0.000003 -0.707103 -0.707109 0.000002 -0.707104 -0.707110 0.000002 -0.707104 -0.707104 0.000001 -0.707110 -0.707103 0.000001 -0.707111 -0.707108 0.000001 -0.707105 -0.707107 0.000001 -0.707107 -0.707107 0.000001 -0.707107 -0.707107 0.000001 -0.707107 -0.707107 0.000001 -0.707107 -0.707106 0.000001 -0.707108 -0.707106 0.000001 -0.707107 -0.707107 0.000001 -0.707106 -0.707106 0.000001 -0.707108 -0.707107 0.000001 -0.707106 -0.707114 0.000001 -0.707099 -0.707101 0.000001 -0.707112 -0.707100 0.000001 -0.707113 -0.707106 0.000001 -0.707108 0.111150 0.449030 -0.886576 0.143178 0.719651 -0.679414 0.273568 0.619882 -0.735463 0.186062 0.342587 -0.920877 0.130076 -0.728324 -0.672774 0.098231 -0.846409 -0.523396 0.153199 -0.829766 -0.536673 0.277203 -0.616732 -0.736750 
						0.111441 0.842686 -0.526745 0.161082 0.827128 -0.538434 0.027069 -0.884385 -0.465972 -0.132031 -0.876964 -0.462062 0.043157 0.883885 -0.465709 -0.034315 0.861970 -0.505796 -0.314073 0.762862 -0.565154 -0.098054 0.880446 -0.463897 -0.051711 -0.858135 -0.510814 -0.337069 -0.750934 -0.567876 -0.089025 0.753978 -0.650839 -0.359889 0.539024 -0.761533 -0.109488 -0.741476 -0.661986 -0.355512 -0.543442 -0.760448 -0.085192 0.483407 -0.871240 -0.239444 0.259642 -0.935549 -0.105704 -0.456347 -0.883501 -0.218949 -0.292235 -0.930946 0.004489 0.008520 -0.999954 -0.023003 -0.043657 -0.998782 -0.001249 0.002369 -0.999996 -0.008710 0.016530 -0.999825 0.103317 -0.459536 -0.882129 0.186312 -0.342214 -0.920966 
					</float_array>
					<technique_common>
						<accessor count="600" offset="0" source="#meshId0-tangents-array" stride="3">
							<param name="X" type="float" />
							<param name="Y" type="float" />
							<param name="Z" type="float" />
						</accessor>
					</technique_common>
				</source>
				<source id="meshId0-bitangents" name="meshId0-bitangents">
					<float_array id="meshId0-bitangents-array" count="1800"> 
						0.923880 -0.000000 0.382683 0.923880 -0.000000 0.382684 1.000000 -0.000000 -0.000000 1.000000 0.000000 0.000000 0.707107 0.000000 -0.707107 0.707107 -0.000000 -0.707107 0.382683 -0.000000 -0.923880 0.382683 -0.000000 -0.923880 -0.000000 -0.000000 -1.000000 0.000000 -0.000000 -1.000000 -0.382684 -0.000000 -0.923880 -0.382684 -0.000000 -0.923880 -0.707107 -0.000000 -0.707107 -0.707107 -0.000000 -0.707107 -0.923880 -0.000001 -0.382684 -0.923880 -0.000000 -0.382684 -1.000000 -0.000001 -0.000000 -1.000000 -0.000001 -0.000000 -1.000000 -0.000000 -0.000000 -1.000000 0.000000 0.000000 -0.923880 -0.000000 0.382684 -0.923880 -0.000000 0.382684 -0.707107 -0.000000 0.707107 -0.707107 -0.000000 0.707107 -0.382684 -0.000000 0.923880 -0.382684 -0.000000 0.923880 -0.000000 -0.000000 1.000000 0.000000 -0.000000 1.000000 0.382683 -0.000000 0.923880 0.382683 -0.000000 0.923880 0.707107 -0.000000 0.707107 0.707107 -0.000000 0.707107 0.430045 -0.043681 0.901750 0.274805 -0.229848 0.933623 0.274805 -0.229848 0.933623 0.430045 -0.043681 0.901750 0.670521 -0.687941 0.277739 0.718551 -0.695474 -0.000000 0.725048 -0.688699 -0.000000 0.671308 -0.687041 0.278065 0.923880 -0.000000 -0.382684 0.923880 -0.000000 -0.382683 0.000001 -1.000000 -0.000000 0.000001 -1.000000 -0.000000 0.000001 -1.000000 -0.000000 -0.000000 -1.000000 -0.000000 0.504827 -0.700214 0.504827 0.504827 -0.700214 0.504827 0.659588 -0.700214 0.273210 0.659588 -0.700214 0.273210 0.273210 -0.700215 0.659587 0.273210 -0.700215 0.659587 -0.000000 -0.700215 0.713932 -0.000000 -0.700215 0.713932 -0.273210 -0.700215 0.659587 -0.273210 -0.700215 0.659587 -0.504827 -0.700214 0.504827 -0.504827 -0.700214 0.504827 -0.659589 -0.700214 0.273210 -0.659589 -0.700214 0.273210 -0.713934 -0.700213 -0.000000 -0.713934 -0.700213 -0.000000 -0.659587 -0.700215 -0.273210 -0.659587 -0.700215 -0.273210 
						-0.713932 -0.700215 -0.000000 -0.713932 -0.700215 -0.000000 -0.504826 -0.700215 -0.504826 -0.504826 -0.700215 -0.504826 -0.273210 -0.700215 -0.659587 -0.273210 -0.700215 -0.659587 0.000000 -0.700215 -0.713932 -0.000000 -0.700215 -0.713932 0.273210 -0.700215 -0.659588 0.273210 -0.700215 -0.659588 0.504826 -0.700215 -0.504826 0.504826 -0.700215 -0.504826 0.659587 -0.700215 -0.273210 0.659587 -0.700215 -0.273210 0.713932 -0.700215 -0.000000 0.713932 -0.700215 -0.000000 0.433730 -0.556219 -0.708871 0.671922 -0.555944 -0.489332 0.676547 -0.577048 -0.457493 0.454842 -0.583293 -0.672970 -0.110633 -0.540414 0.834094 -0.420182 -0.538845 0.730133 -0.442389 -0.567324 0.694576 -0.144596 -0.568699 0.809736 -0.105839 -0.536330 -0.837346 -0.431637 -0.553535 -0.712241 -0.452315 -0.580052 -0.677459 -0.144219 -0.568392 -0.810020 0.421128 -0.540058 0.728690 0.667413 -0.538119 0.514769 0.675108 -0.570067 0.468245 0.443951 -0.569327 0.691935 -0.858949 -0.506959 -0.072101 -0.850262 -0.415080 -0.323672 -0.840472 -0.427298 -0.333200 -0.848831 -0.521231 -0.088337 -0.524322 -0.671496 0.523621 -0.448228 -0.582949 0.677689 -0.426236 -0.596537 0.680049 -0.517420 -0.674817 0.526211 0.109429 -0.539390 -0.834915 0.147885 -0.571378 -0.807253 0.216407 -0.540826 0.812819 0.175544 -0.569197 0.803243 -0.670274 -0.549183 -0.499130 -0.674985 -0.569491 -0.469122 0.807693 -0.556945 0.193505 0.797330 -0.583644 0.153699 -0.812619 -0.541507 0.215456 -0.805180 -0.564032 0.183177 0.834178 -0.540309 0.110510 0.728257 -0.540420 0.421411 0.691598 -0.569581 0.444150 0.808049 -0.570523 0.146834 -0.197453 -0.554206 0.808621 -0.160450 -0.579232 0.799216 -0.204206 -0.549483 -0.810165 -0.164588 -0.576505 -0.800346 0.511089 -0.540753 0.668113 0.469305 -0.569371 0.674959 0.729784 -0.539138 -0.420411 0.513278 -0.539188 -0.667699 0.468996 -0.569574 -0.675002 0.697099 -0.565396 -0.440886 
						0.517387 -0.681631 0.517387 0.514557 -0.685903 0.514557 0.279822 -0.682152 0.675550 0.278895 -0.684740 0.673312 0.000000 -0.685309 0.728252 0.000000 -0.683029 0.730391 -0.276771 -0.690599 0.668185 -0.280665 -0.679784 0.677585 -0.504167 -0.701164 0.504167 -0.522521 -0.673754 0.522521 -0.642996 -0.718067 0.266338 -0.691170 -0.663567 0.286292 -0.683707 -0.729757 -0.000000 -0.751710 -0.659494 -0.000000 -0.693919 -0.660197 -0.287430 -0.765028 -0.643997 -0.000000 -0.669399 -0.742903 -0.000000 -0.636903 -0.724400 -0.263814 -0.515945 -0.683814 -0.515945 -0.504304 -0.700968 -0.504304 -0.279106 -0.684153 -0.673821 -0.277468 -0.688688 -0.669866 0.000000 -0.680811 -0.732459 0.000000 -0.684126 -0.729364 0.279583 -0.682820 -0.674974 0.277329 -0.689069 -0.669532 0.514272 -0.686329 -0.514272 0.507565 -0.696244 -0.507565 0.666258 -0.692776 -0.275973 0.665211 -0.693954 -0.275539 -0.868207 -0.492979 0.056466 -0.853461 -0.410976 0.320472 -0.837331 -0.431117 0.336178 -0.852051 -0.516794 0.083259 -0.528109 -0.669648 -0.522180 -0.451241 -0.581042 -0.677327 -0.426827 -0.596179 -0.679992 -0.518170 -0.674460 -0.525932 0.114832 -0.543973 0.831208 0.148515 -0.571890 0.806775 0.220643 -0.537783 -0.813699 0.177471 -0.567899 -0.803738 0.820742 -0.556393 -0.129651 0.801727 -0.577215 -0.155101 -0.666595 -0.535087 0.518973 -0.673935 -0.564681 0.476390 0.813269 -0.539281 -0.218561 0.804582 -0.565651 -0.180793 -0.817621 -0.522903 -0.240975 -0.811005 -0.546822 -0.207981 -0.000001 -0.000000 1.000000 -0.000001 -0.000000 1.000000 -0.000001 -0.000000 1.000000 -0.000001 -0.000000 1.000000 -0.000001 -0.000000 1.000000 -0.000000 -0.000000 1.000000 -0.000000 -0.000000 1.000000 0.000001 -0.000000 1.000000 -0.000001 -0.000000 1.000000 -0.000002 -0.000000 1.000000 0.000002 -0.000000 1.000000 0.000001 -0.000000 1.000000 0.000001 -0.000000 1.000000 -0.000002 -0.000000 1.000000 
						0.000001 -0.000000 1.000000 -0.000000 -0.000000 1.000000 0.000000 -1.000000 -0.000002 -0.000001 -1.000000 -0.000003 -0.000001 -1.000000 -0.000002 0.000000 -1.000000 -0.000001 0.000000 -1.000000 -0.000000 0.000000 -1.000000 0.000000 0.000000 -1.000000 -0.000000 0.000000 -1.000000 -0.000000 0.000000 -1.000000 -0.000000 -0.000000 -1.000000 0.000001 -0.000000 -1.000000 0.000001 0.000000 -1.000000 -0.000000 0.000000 -1.000000 0.000000 -0.000001 -1.000000 -0.000000 0.000000 -1.000000 -0.000000 0.000000 -1.000000 -0.000000 0.000000 -1.000000 -0.000000 0.000000 -1.000000 -0.000000 0.000000 -1.000000 -0.000000 0.000000 -1.000000 -0.000000 0.000000 -1.000000 -0.000000 0.000000 -1.000000 -0.000000 -0.000000 -1.000000 -0.000000 -0.000000 -1.000000 -0.000000 0.000000 -1.000000 -0.000000 0.000000 -1.000000 -0.000000 -0.000000 -1.000000 -0.000000 -0.000001 -1.000000 -0.000000 -0.000001 -1.000000 -0.000000 -0.000002 -1.000000 -0.000000 0.861852 0.397709 -0.314705 0.877982 0.258293 -0.403029 0.877982 0.258293 -0.403029 0.861852 0.397709 -0.314705 0.923515 0.329646 -0.196097 0.859990 0.450326 -0.240048 0.859990 0.450326 -0.240048 0.923515 0.329646 -0.196096 0.923515 -0.329642 0.196101 0.978423 -0.173952 0.111484 0.978423 -0.173952 0.111484 0.923515 -0.329642 0.196100 0.861852 -0.397707 0.314706 0.828395 -0.494576 0.262977 0.828395 -0.494576 0.262977 0.861852 -0.397707 0.314706 0.815307 0.522516 -0.249503 0.805834 0.537869 -0.247646 0.805834 0.537869 -0.247647 0.815307 0.522516 -0.249503 0.805835 -0.537867 0.247649 0.815309 -0.522513 0.249503 0.815309 -0.522513 0.249504 0.805835 -0.537867 0.247648 0.828394 0.494578 -0.262976 0.828393 0.494578 -0.262977 0.978423 0.173955 -0.111483 0.978423 0.173955 -0.111483 0.859991 -0.450322 0.240052 0.859991 -0.450322 0.240053 0.877982 -0.258292 0.403029 0.877982 -0.258292 0.403029 
						1.000000 0.000002 0.000002 1.000000 0.000002 0.000002 -0.000000 0.700214 0.713933 -0.273210 0.700214 0.659588 -0.273210 0.700214 0.659588 0.000000 0.700214 0.713933 -0.564877 0.146223 0.812116 -0.649721 0.323577 0.687866 -0.649721 0.323577 0.687866 -0.564877 0.146223 0.812116 -0.004777 -0.612401 0.790533 -0.044287 -0.527834 0.848192 -0.044287 -0.527834 0.848192 -0.004776 -0.612401 0.790533 0.136633 -0.396194 0.907944 0.044288 -0.527835 0.848192 0.044288 -0.527835 0.848191 0.136634 -0.396194 0.907944 0.675941 0.472810 0.565291 0.649721 0.323577 0.687866 0.649721 0.323577 0.687866 0.675942 0.472810 0.565290 0.004778 -0.612401 0.790533 -0.000002 -0.641573 0.767062 -0.000001 -0.641573 0.767062 0.004777 -0.612401 0.790533 -0.136633 -0.396193 0.907944 -0.274805 -0.229848 0.933623 -0.274805 -0.229848 0.933623 -0.136633 -0.396193 0.907944 0.564877 0.146223 0.812116 0.564877 0.146223 0.812116 -0.430045 -0.043681 0.901750 -0.430045 -0.043681 0.901750 -0.675944 0.472809 0.565289 -0.675944 0.472809 0.565289 -0.000000 0.700214 -0.713933 0.273210 0.700214 -0.659588 0.273210 0.700214 -0.659588 0.000000 0.700214 -0.713933 0.273210 0.700214 0.659588 0.273210 0.700214 0.659588 -0.273210 0.700214 -0.659588 -0.273210 0.700214 -0.659588 0.504827 0.700214 0.504827 0.504827 0.700214 0.504827 -0.504827 0.700214 -0.504827 -0.504827 0.700214 -0.504827 0.659588 0.700214 0.273210 0.659588 0.700214 0.273210 -0.659588 0.700214 -0.273210 -0.659588 0.700214 -0.273210 0.713933 0.700214 -0.000000 0.713933 0.700214 -0.000000 -0.659588 0.700214 0.273210 -0.713933 0.700214 -0.000000 -0.713933 0.700214 -0.000000 -0.659588 0.700214 0.273210 0.659587 0.700215 -0.273210 0.713933 0.700214 -0.000000 0.713933 0.700214 -0.000000 0.659587 0.700215 -0.273210 -0.504827 0.700214 0.504827 -0.504827 0.700214 0.504827 
						0.504827 0.700214 -0.504827 0.504827 0.700214 -0.504827 -1.000000 0.000003 0.000002 -1.000000 0.000003 0.000002 -1.000000 0.000003 0.000002 -1.000000 0.000003 0.000002 -1.000000 0.000003 0.000003 -1.000000 0.000003 0.000003 -1.000000 0.000002 0.000002 -1.000000 0.000002 0.000002 -1.000000 0.000000 0.000000 -1.000000 0.000000 0.000003 -1.000000 0.000000 0.000003 -1.000000 0.000000 0.000001 -1.000000 0.000001 0.000003 -1.000000 0.000001 0.000002 -1.000000 0.000001 0.000004 -1.000000 0.000001 0.000004 -1.000000 0.000002 0.000002 -1.000000 0.000002 0.000002 -1.000000 0.000002 0.000001 -1.000000 0.000002 0.000001 0.923879 -0.000000 -0.382684 1.000000 -0.000000 0.000000 1.000000 0.000001 0.000000 0.923880 -0.000000 -0.382684 -0.707107 0.000000 0.707107 -0.923880 0.000000 0.382683 -0.923880 0.000000 0.382683 -0.707107 0.000000 0.707107 0.707107 -0.000000 -0.707107 0.707107 -0.000000 -0.707107 -0.382684 0.000000 0.923879 -0.382684 0.000000 0.923880 0.382684 0.000000 -0.923880 0.382684 -0.000000 -0.923879 -0.000000 0.000000 1.000000 0.000000 0.000000 1.000000 -0.000000 0.000000 -1.000000 -0.000000 0.000000 -1.000000 0.382684 0.000000 0.923879 0.382684 0.000000 0.923879 -0.382683 0.000000 -0.923880 -0.382683 0.000000 -0.923880 0.707107 0.000000 0.707107 0.707107 0.000000 0.707107 -0.707107 0.000000 -0.707107 -0.707107 0.000000 -0.707107 0.923880 -0.000000 0.382684 0.923879 -0.000000 0.382684 -0.923880 0.000000 -0.382683 -0.923880 0.000000 -0.382683 1.000000 -0.000000 0.000000 1.000000 -0.000000 0.000000 -1.000000 0.000000 0.000000 -1.000000 0.000000 0.000000 -1.000000 0.000002 0.000003 -1.000000 0.000002 0.000003 -1.000000 0.000001 0.000003 -1.000000 0.000001 0.000003 -1.000000 0.000000 0.000004 -1.000000 0.000000 0.000004 -1.000000 0.000000 -0.000002 -1.000000 -0.000000 -0.000002 
						-1.000000 0.000000 -0.000001 -1.000000 0.000000 -0.000001 -1.000000 0.000001 -0.000002 -1.000000 0.000001 -0.000002 -0.000004 -0.000002 -1.000000 -0.000001 -0.000001 -1.000000 0.000000 -0.000001 -1.000000 -0.000004 -0.000002 -1.000000 0.000001 -0.000000 -1.000000 0.000000 -0.000002 -1.000000 0.000000 -0.000002 -1.000000 0.000001 -0.000000 -1.000000 -0.707106 0.000006 -0.707108 -0.707106 0.000002 -0.707107 -0.707107 0.000002 -0.707107 -0.707106 0.000006 -0.707107 0.000006 -0.000001 -1.000000 0.000006 -0.000001 -1.000000 -0.273210 -0.700215 0.659588 -0.504827 -0.700214 0.504827 -0.504827 -0.700215 0.504826 -0.273210 -0.700215 0.659587 0.000000 0.000000 -1.000000 0.000000 0.000000 -1.000000 -0.707108 -0.000000 -0.707106 -0.707109 -0.000000 -0.707105 0.000000 -0.000000 -1.000000 -0.000000 0.000000 -1.000000 -0.000001 -0.000002 -1.000000 -0.000001 -0.000002 -1.000000 -0.707108 -0.000000 -0.707105 -0.707108 -0.000000 -0.707105 0.000000 -0.000002 -1.000000 0.000000 -0.000002 -1.000000 -0.707107 0.000001 -0.707107 -0.707107 0.000001 -0.707107 -0.000000 0.700214 0.713933 -0.273211 0.700214 0.659588 -0.273211 0.700214 0.659588 -0.000000 0.700214 0.713933 -0.000000 0.700213 -0.713934 0.273209 0.700217 -0.659586 0.273209 0.700217 -0.659586 -0.000000 0.700213 -0.713934 0.273210 0.700216 0.659586 0.273210 0.700216 0.659586 -0.273211 0.700213 -0.659589 -0.273211 0.700213 -0.659589 0.504826 0.700215 0.504826 0.504826 0.700216 0.504826 -0.504826 0.700215 -0.504826 -0.504826 0.700215 -0.504826 0.659588 0.700214 0.273211 0.659588 0.700214 0.273211 -0.659587 0.700215 -0.273210 -0.659587 0.700215 -0.273210 0.713934 0.700213 0.000000 0.713934 0.700213 -0.000000 -0.659590 0.700212 0.273211 -0.713935 0.700212 0.000000 -0.713934 0.700213 -0.000000 -0.659590 0.700212 0.273211 0.659588 0.700215 -0.273210 0.713932 0.700215 0.000000 
						0.713932 0.700215 -0.000000 0.659587 0.700215 -0.273209 -0.504826 0.700215 0.504827 -0.504826 0.700214 0.504827 0.504828 0.700213 -0.504827 0.504828 0.700213 -0.504827 -0.000001 0.000000 -1.000000 -0.000001 0.000000 -1.000000 0.000007 -0.000000 -1.000000 0.000006 -0.000000 -1.000000 0.000007 -0.000000 -1.000000 0.000007 -0.000000 -1.000000 -0.707107 0.000004 -0.707106 -0.707107 0.000004 -0.707106 0.000006 0.000000 -1.000000 0.000006 0.000000 -1.000000 -0.707108 0.000007 -0.707106 -0.707108 0.000007 -0.707106 -0.000001 0.000000 -1.000000 -0.000001 0.000000 -1.000000 0.000002 -0.000000 -1.000000 0.000001 -0.000000 -1.000000 0.000005 0.000000 -1.000000 0.000004 0.000000 -1.000000 -0.707107 0.000008 -0.707106 -0.707107 0.000008 -0.707106 -0.707108 0.000007 -0.707106 -0.707107 0.000007 -0.707106 -0.000000 -0.700215 0.713932 -0.000000 -0.700215 0.713933 -0.000000 -0.700215 -0.713932 0.273210 -0.700214 -0.659588 0.273210 -0.700214 -0.659588 -0.000000 -0.700214 -0.713933 0.273210 -0.700215 0.659587 0.273210 -0.700215 0.659587 -0.504826 -0.700215 -0.504826 -0.273210 -0.700215 -0.659587 -0.273210 -0.700215 -0.659587 -0.504826 -0.700215 -0.504826 0.504826 -0.700215 0.504827 0.504826 -0.700215 0.504826 -0.659588 -0.700215 -0.273210 -0.659588 -0.700215 -0.273210 0.659587 -0.700215 0.273210 0.659587 -0.700215 0.273210 0.504827 -0.700214 -0.504827 0.504826 -0.700215 -0.504827 -0.659587 -0.700215 0.273210 -0.659588 -0.700214 0.273210 0.659588 -0.700215 -0.273210 0.659587 -0.700215 -0.273210 -0.713932 -0.700215 0.000000 -0.713932 -0.700215 -0.000000 0.713932 -0.700215 0.000000 0.713932 -0.700215 -0.000000 -0.713933 -0.700214 0.000000 -0.713933 -0.700214 -0.000000 -0.707107 0.000007 -0.707107 -0.707107 0.000007 -0.707107 -0.707107 0.000007 -0.707106 -0.707107 0.000007 -0.707106 -0.707109 0.000004 -0.707104 -0.707109 0.000004 -0.707104 
						-0.707107 0.000001 -0.707107 -0.707107 0.000001 -0.707106 -0.707105 0.000003 -0.707108 -0.707108 -0.000000 -0.707106 -0.707107 -0.000000 -0.707106 -0.707105 0.000003 -0.707108 -0.707104 -0.000000 -0.707109 -0.707105 -0.000000 -0.707109 0.707105 0.000002 -0.707108 0.707107 0.000001 -0.707106 0.707107 0.000001 -0.707106 0.707105 0.000002 -0.707108 0.707106 -0.000002 -0.707107 0.707106 -0.000002 -0.707107 0.707106 -0.000003 -0.707107 0.707106 -0.000003 -0.707107 0.707103 -0.000004 -0.707110 0.707103 -0.000004 -0.707110 0.707109 -0.000003 -0.707105 0.707108 -0.000003 -0.707105 0.707107 -0.000003 -0.707107 0.707107 -0.000003 -0.707107 0.707109 -0.000003 -0.707105 0.707109 -0.000003 -0.707105 0.707107 -0.000003 -0.707107 0.707107 -0.000003 -0.707106 0.707105 -0.000001 -0.707109 0.707105 -0.000001 -0.707109 0.707107 0.000001 -0.707107 0.707107 0.000001 -0.707107 0.707104 -0.000000 -0.707110 0.707104 -0.000000 -0.707110 0.707103 -0.000001 -0.707110 0.707103 -0.000001 -0.707111 0.707109 -0.000001 -0.707105 0.707109 -0.000001 -0.707105 0.707102 -0.000001 -0.707111 0.707103 -0.000001 -0.707111 0.707104 -0.000002 -0.707109 0.707104 -0.000002 -0.707110 0.707110 -0.000002 -0.707104 0.707111 -0.000002 -0.707103 0.707105 -0.000002 -0.707108 0.707107 -0.000002 -0.707107 0.707107 -0.000002 -0.707107 0.707107 -0.000002 -0.707107 0.707107 -0.000002 -0.707107 0.707108 -0.000002 -0.707106 0.707107 -0.000002 -0.707106 0.707106 -0.000002 -0.707107 0.707108 -0.000002 -0.707106 0.707106 -0.000002 -0.707107 0.707099 -0.000002 -0.707114 0.707112 -0.000002 -0.707101 0.707113 -0.000002 -0.707100 0.707108 -0.000002 -0.707106 0.565296 -0.762288 -0.315210 0.766905 -0.514601 -0.383461 0.730619 -0.631234 -0.260267 0.545248 -0.815687 -0.193287 0.769237 0.502250 -0.394993 0.935802 0.257493 -0.240772 0.928388 0.306917 -0.209515 0.729249 0.634312 -0.256601 
						0.934320 -0.269426 -0.233357 0.927053 -0.313958 -0.204949 0.999633 0.023948 0.012619 0.991246 -0.116809 -0.061545 0.999068 -0.038182 0.020117 0.940318 0.199292 0.275835 0.886980 0.448053 0.111874 0.995181 0.086749 -0.045707 0.939521 -0.215211 0.266429 0.878498 -0.467771 0.097117 0.775061 0.462847 0.430177 0.692189 0.701543 0.169444 0.772435 -0.482622 0.412819 0.694446 -0.698127 0.174250 0.569787 0.740964 0.355408 0.524006 0.845752 0.100607 0.566340 -0.757930 0.323729 0.532894 -0.835051 0.136801 0.466122 0.884668 0.009630 0.465576 0.883631 -0.049346 0.466141 -0.884706 -0.002678 0.466061 -0.884555 -0.018685 0.566781 0.756000 -0.327448 0.545163 0.815843 -0.192865 
					</float_array>
					<technique_common>
						<accessor count="600" offset="0" source="#meshId0-bitangents-array" stride="3">
							<param name="X" type="float" />
							<param name="Y" type="float" />
							<param name="Z" type="float" />
						</accessor>
					</technique_common>
				</source>
				<source id="meshId0-tex0" name="meshId0-tex0">
					<float_array id="meshId0-tex0-array" count="1200"> 
						0.627861 0.205949 0.689564 0.205949 0.689564 0.227389 0.627861 0.227389 0.627861 0.270268 0.689564 0.270268 0.689564 0.291707 0.627861 0.291707 0.689564 0.313147 0.627861 0.313147 0.689564 0.334586 0.627861 0.334586 0.689564 0.356026 0.627861 0.356026 0.689564 0.377465 0.627861 0.377465 0.689564 0.398905 0.627861 0.398905 0.627861 0.055872 0.689564 0.055872 0.689564 0.077312 0.627861 0.077312 0.689564 0.098751 0.627861 0.098751 0.689564 0.120191 0.627861 0.120191 0.689564 0.141631 0.627861 0.141631 0.689564 0.163070 0.627861 0.163070 0.689564 0.184510 0.627861 0.184510 0.089033 0.640641 0.093689 0.661569 0.078455 0.667462 0.072738 0.641762 0.615801 0.632781 0.598814 0.649663 0.380487 0.431702 0.397606 0.414551 0.689564 0.248828 0.627861 0.248828 0.220598 0.920795 0.193023 0.920795 0.193023 0.771987 0.220598 0.771987 0.151602 0.090962 0.169230 0.108590 0.154070 0.123750 0.136442 0.106122 0.166762 0.075802 0.184390 0.093430 0.181922 0.060642 0.199550 0.078270 0.197083 0.045482 0.214710 0.063110 0.212243 0.030322 0.229870 0.047949 0.227403 0.015162 0.245030 0.032789 0.242563 0.000002 0.260190 0.017629 0.015162 0.227402 0.032790 0.245030 
						0.017630 0.260190 0.000002 0.242563 0.030322 0.212242 0.047950 0.229870 0.045482 0.197082 0.063110 0.214710 0.060642 0.181922 0.078270 0.199550 0.075802 0.166762 0.093430 0.184390 0.090962 0.151602 0.108590 0.169230 0.106122 0.136442 0.123750 0.154070 0.121282 0.121282 0.138910 0.138910 0.303293 0.490778 0.321303 0.473763 0.329444 0.482201 0.311971 0.499566 0.423578 0.371812 0.440707 0.354529 0.449084 0.362811 0.431913 0.380099 0.555983 0.709087 0.538664 0.726962 0.529921 0.718210 0.547488 0.700720 0.676599 0.588914 0.659444 0.606347 0.650953 0.597934 0.668254 0.580612 0.491651 0.302238 0.505886 0.284713 0.515552 0.290798 0.500169 0.309702 0.745885 0.524598 0.727821 0.538815 0.720479 0.530279 0.739841 0.514663 0.286001 0.508566 0.294371 0.516917 0.406435 0.389057 0.414752 0.397341 0.520803 0.744064 0.512580 0.735744 0.642022 0.624211 0.633306 0.615381 0.474831 0.319397 0.483588 0.327787 0.355280 0.440570 0.372230 0.423472 0.380487 0.431702 0.363417 0.448711 0.710720 0.554886 0.702778 0.546587 0.269045 0.525646 0.277027 0.533881 0.389307 0.406282 0.397606 0.414551 0.606611 0.657618 0.589971 0.674460 0.581804 0.666322 0.598814 0.649663 
						0.633306 0.615381 0.414752 0.397341 0.650953 0.597934 0.431913 0.380099 0.668254 0.580612 0.449084 0.362811 0.685479 0.563462 0.466277 0.345417 0.702778 0.546587 0.483588 0.327787 0.720479 0.530279 0.500169 0.309702 0.739841 0.514663 0.515552 0.290798 0.479327 0.770547 0.463297 0.790313 0.240633 0.565247 0.259430 0.550148 0.495825 0.752943 0.277027 0.533881 0.512580 0.735744 0.294371 0.516917 0.529921 0.718210 0.311971 0.499566 0.547488 0.700720 0.329444 0.482201 0.564712 0.683406 0.346415 0.465337 0.581804 0.666322 0.363417 0.448711 0.488181 0.777989 0.473719 0.796764 0.463297 0.790313 0.479327 0.770547 0.234725 0.555632 0.252193 0.541759 0.259430 0.550148 0.240633 0.565247 0.693681 0.571734 0.685479 0.563462 0.573049 0.691648 0.564712 0.683406 0.623951 0.641236 0.615801 0.632781 0.457791 0.337128 0.466277 0.345417 0.338629 0.457386 0.346415 0.465337 0.503867 0.760643 0.495825 0.752943 0.628413 0.862821 0.601368 0.857441 0.578441 0.842122 0.563121 0.819194 0.557742 0.792150 0.563121 0.765105 0.578441 0.742178 0.601368 0.726858 0.628413 0.721479 0.655457 0.726858 0.678385 0.742178 0.693704 0.765105 0.699084 0.792150 0.693704 0.819194 
						0.678385 0.842122 0.655457 0.857441 0.330896 0.920796 0.303321 0.920795 0.303321 0.771987 0.330896 0.771987 0.082725 0.920795 0.055151 0.920795 0.055151 0.771987 0.082725 0.771987 0.386045 0.920795 0.358470 0.920795 0.358470 0.771987 0.386045 0.771987 0.248172 0.920795 0.248172 0.771987 0.137874 0.920795 0.110300 0.920795 0.110300 0.771987 0.137874 0.771987 0.441194 0.920795 0.413619 0.920795 0.413619 0.771987 0.441194 0.771987 0.275747 0.920795 0.275747 0.771987 0.165449 0.920795 0.165449 0.771987 0.027577 0.920795 0.027577 0.771987 0.000002 0.920795 0.000002 0.771987 0.949531 0.134556 0.962787 0.117705 0.979162 0.126685 0.962113 0.148357 0.854005 0.126341 0.869753 0.140888 0.859506 0.156502 0.839251 0.137791 0.854004 0.046312 0.843820 0.065178 0.826152 0.059126 0.839251 0.034862 0.949531 0.038097 0.931530 0.026451 0.938961 0.009318 0.962113 0.024296 0.889366 0.149548 0.910727 0.151385 0.912204 0.170002 0.884731 0.167639 0.910726 0.021267 0.889366 0.023104 0.884731 0.005013 0.912204 0.002650 0.931530 0.146201 0.938961 0.163334 0.843820 0.107475 0.826152 0.113526 0.869753 0.031764 0.859506 0.016151 0.962787 0.054947 0.979162 0.045968 
						0.840299 0.086326 0.821623 0.086326 0.237251 0.088317 0.218634 0.106934 0.204786 0.093086 0.223403 0.074469 0.230218 0.619273 0.222227 0.599378 0.236302 0.591090 0.246115 0.615521 0.181696 0.704150 0.200996 0.694812 0.210230 0.708285 0.186530 0.719752 0.104329 0.680182 0.120001 0.694812 0.110767 0.708285 0.091522 0.690319 0.112291 0.582739 0.098770 0.599378 0.084695 0.591090 0.101298 0.570658 0.139300 0.704150 0.160498 0.707358 0.160498 0.723692 0.134467 0.719752 0.216667 0.680182 0.227308 0.661569 0.242541 0.667462 0.229475 0.690319 0.090779 0.619273 0.074882 0.615521 0.231963 0.640641 0.248259 0.641762 0.208706 0.582739 0.219698 0.570658 0.088317 0.237251 0.069700 0.255868 0.055852 0.242020 0.074469 0.223403 0.255868 0.069700 0.242020 0.055852 0.106934 0.218634 0.093086 0.204786 0.274485 0.051083 0.260637 0.037235 0.125550 0.200017 0.111703 0.186170 0.293101 0.032467 0.279254 0.018619 0.144167 0.181401 0.130319 0.167553 0.311718 0.013850 0.297870 0.000002 0.181401 0.144167 0.162784 0.162784 0.148936 0.148936 0.167553 0.130319 0.032467 0.293101 0.013850 0.311718 0.000002 0.297870 0.018619 0.279253 0.200017 0.125550 0.186170 0.111703 
						0.051083 0.274485 0.037236 0.260637 0.935650 0.207671 0.909828 0.202535 0.909828 0.189074 0.940802 0.195235 0.884006 0.207671 0.878855 0.195235 0.862115 0.222298 0.852597 0.212780 0.842352 0.270012 0.847488 0.295834 0.835052 0.300985 0.828891 0.270012 0.847488 0.244189 0.835051 0.239038 0.862115 0.317725 0.852597 0.327243 0.884006 0.332352 0.878855 0.344788 0.909828 0.337488 0.909828 0.350949 0.819626 0.473707 0.819626 0.505288 0.734445 0.505288 0.734445 0.473707 0.819626 0.189484 0.819626 0.221065 0.734445 0.221064 0.734445 0.189484 0.819626 0.442127 0.734445 0.442127 0.819626 0.157904 0.734445 0.157904 0.819626 0.410547 0.734445 0.410547 0.819626 0.126323 0.734445 0.126323 0.819626 0.378966 0.734445 0.378966 0.819626 0.094743 0.734445 0.094743 0.819626 0.347386 0.734445 0.347386 0.819626 0.063163 0.734445 0.063163 0.819626 0.315806 0.734445 0.315806 0.819626 0.031582 0.734445 0.031582 0.819626 0.284225 0.734445 0.284225 0.819626 0.000002 0.734445 0.000002 0.819626 0.252645 0.734445 0.252645 0.957541 0.222298 0.967060 0.212780 0.972169 0.244189 0.984605 0.239038 0.977305 0.270012 0.990766 0.270011 0.972169 0.295834 0.984605 0.300985 
						0.957541 0.317725 0.967060 0.327243 0.935651 0.332352 0.940802 0.344788 0.879837 0.367357 0.853579 0.384902 0.847746 0.379069 0.876680 0.359735 0.941784 0.367357 0.910811 0.361196 0.910811 0.352946 0.944941 0.359735 0.628412 0.884338 0.662543 0.877549 0.668755 0.892546 0.628412 0.900571 0.836034 0.411160 0.828412 0.408003 0.378112 0.087258 0.407197 0.058173 0.567693 0.218669 0.538608 0.247754 0.829873 0.442134 0.821623 0.442134 0.691477 0.858216 0.702956 0.869694 0.836034 0.473107 0.828412 0.476264 0.853579 0.499365 0.847745 0.505199 0.710811 0.829282 0.725808 0.835494 0.879837 0.516910 0.876680 0.524532 0.717600 0.795151 0.733832 0.795151 0.302162 0.105308 0.277555 0.129915 0.270676 0.123036 0.295283 0.098429 0.105308 0.302162 0.080701 0.326769 0.073822 0.319890 0.098429 0.295283 0.326769 0.080701 0.319890 0.073822 0.129915 0.277555 0.123036 0.270676 0.351375 0.056094 0.344496 0.049215 0.154521 0.252948 0.147642 0.246069 0.375982 0.031488 0.369103 0.024609 0.179128 0.228342 0.172249 0.221463 0.400589 0.006881 0.393710 0.000002 0.228342 0.179128 0.203735 0.203735 0.196856 0.196856 0.221463 0.172249 0.031488 0.375982 0.006881 0.400589 
						0.000002 0.393710 0.024609 0.369103 0.252948 0.154521 0.246069 0.147642 0.056094 0.351375 0.049215 0.344497 0.968042 0.384902 0.973876 0.379069 0.985587 0.411160 0.993209 0.408003 0.991748 0.442134 0.999998 0.442134 0.710811 0.761020 0.725808 0.754808 0.985587 0.473107 0.993209 0.476264 0.691477 0.732086 0.702956 0.720608 0.968042 0.499365 0.973876 0.505199 0.941784 0.516910 0.944941 0.524532 0.910811 0.523071 0.910811 0.531321 0.662543 0.712753 0.668755 0.697755 0.628412 0.705964 0.628412 0.689731 0.349026 0.116343 0.509522 0.276840 0.116344 0.349026 0.145429 0.319941 0.305925 0.480437 0.276840 0.509522 0.319941 0.145429 0.480437 0.305925 0.058173 0.407197 0.087258 0.378112 0.247754 0.538608 0.218669 0.567693 0.290855 0.174514 0.451352 0.335010 0.029088 0.436282 0.189584 0.596778 0.261770 0.203599 0.422266 0.364096 0.174514 0.290855 0.335010 0.451352 0.436282 0.029087 0.596779 0.189584 0.203600 0.261770 0.364096 0.422266 0.465368 0.000002 0.625864 0.160498 0.232685 0.232685 0.393181 0.393181 0.000002 0.465367 0.160498 0.625864 0.594282 0.877549 0.588070 0.892546 0.565347 0.858216 0.553869 0.869694 0.546014 0.829281 0.531017 0.835494 
						0.539225 0.795151 0.522992 0.795151 0.594282 0.712753 0.565347 0.732086 0.553869 0.720608 0.588070 0.697755 0.546014 0.761021 0.531017 0.754808 0.779802 0.801120 0.748445 0.822072 0.742248 0.815875 0.776448 0.793022 0.816791 0.793762 0.816791 0.784998 0.853779 0.801120 0.857133 0.793022 0.885137 0.822072 0.891334 0.815875 0.906089 0.853429 0.914186 0.850075 0.913447 0.890418 0.922211 0.890418 0.906089 0.927406 0.914186 0.930760 0.885137 0.958764 0.891334 0.964961 0.853779 0.979716 0.857133 0.987813 0.816791 0.987073 0.816791 0.995838 0.779802 0.979716 0.776448 0.987813 0.748445 0.958764 0.742248 0.964961 0.727493 0.927406 0.719395 0.930760 0.720135 0.890418 0.711371 0.890418 0.727493 0.853429 0.719395 0.850075 0.012169 0.012169 0.025645 0.003164 0.041542 0.000002 0.057438 0.003164 0.070914 0.012169 0.079919 0.025645 0.083081 0.041542 0.079919 0.057438 0.070914 0.070915 0.057438 0.079919 0.041542 0.083081 0.025645 0.079919 0.012169 0.070914 0.003164 0.057438 0.000002 0.041542 0.003164 0.025645 0.767058 0.773477 0.723098 0.744980 0.797285 0.668171 0.806590 0.674959 0.913659 0.552378 0.942914 0.597291 0.844253 0.637541 0.837748 0.628669 
						0.693109 0.701400 0.791279 0.658404 0.952630 0.649012 0.846694 0.648359 0.682132 0.649231 0.692539 0.597478 0.791220 0.636090 0.789458 0.647170 0.942604 0.700795 0.844612 0.659213 0.720948 0.553529 0.797859 0.626829 0.912756 0.744763 0.838545 0.668654 0.764342 0.523637 0.807356 0.620910 0.868788 0.773457 0.829155 0.675178 0.816247 0.512630 0.818331 0.619226 0.817908 0.783001 0.817792 0.677712 0.868750 0.522594 0.829023 0.621974 
					</float_array>
					<technique_common>
						<accessor count="600" offset="0" source="#meshId0-tex0-array" stride="2">
							<param name="S" type="float" />
							<param name="T" type="float" />
						</accessor>
					</technique_common>
				</source>
				<vertices id="meshId0-vertices">
					<input semantic="POSITION" source="#meshId0-positions" />
				</vertices>
				<polylist count="572" material="defaultMaterial">
					<input offset="0" semantic="VERTEX" source="#meshId0-vertices" />
					<input offset="0" semantic="NORMAL" source="#meshId0-normals" />
					<input offset="0" semantic="TANGENT" source="#meshId0-tangents" />
					<input offset="0" semantic="BINORMAL" source="#meshId0-bitangents" />
					<input offset="0" semantic="TEXCOORD" source="#meshId0-tex0" set="0" />
					<vcount>
						3 3 3 3 3 3 3 3 3 3 3 3 3 3 3 3 3 3 3 3 3 3 3 3 3 3 3 3 3 3 3 3 3 3 3 3 3 3 3 3 3 3 3 3 3 3 3 3 3 3 3 3 3 3 3 3 3 3 3 3 3 3 3 3 
						3 3 3 3 3 3 3 3 3 3 3 3 3 3 3 3 3 3 3 3 3 3 3 3 3 3 3 3 3 3 3 3 3 3 3 3 3 3 3 3 3 3 3 3 3 3 3 3 3 3 3 3 3 3 3 3 3 3 3 3 3 3 3 3 
						3 3 3 3 3 3 3 3 3 3 3 3 3 3 3 3 3 3 3 3 3 3 3 3 3 3 3 3 3 3 3 3 3 3 3 3 3 3 3 3 3 3 3 3 3 3 3 3 3 3 3 3 3 3 3 3 3 3 3 3 3 3 3 3 
						3 3 3 3 3 3 3 3 3 3 3 3 3 3 3 3 3 3 3 3 3 3 3 3 3 3 3 3 3 3 3 3 3 3 3 3 3 3 3 3 3 3 3 3 3 3 3 3 3 3 3 3 3 3 3 3 3 3 3 3 3 3 3 3 
						3 3 3 3 3 3 3 3 3 3 3 3 3 3 3 3 3 3 3 3 3 3 3 3 3 3 3 3 3 3 3 3 3 3 3 3 3 3 3 3 3 3 3 3 3 3 3 3 3 3 3 3 3 3 3 3 3 3 3 3 3 3 3 3 
						3 3 3 3 3 3 3 3 3 3 3 3 3 3 3 3 3 3 3 3 3 3 3 3 3 3 3 3 3 3 3 3 3 3 3 3 3 3 3 3 3 3 3 3 3 3 3 3 3 3 3 3 3 3 3 3 3 3 3 3 3 3 3 3 
						3 3 3 3 3 3 3 3 3 3 3 3 3 3 3 3 3 3 3 3 3 3 3 3 3 3 3 3 3 3 3 3 3 3 3 3 3 3 3 3 3 3 3 3 3 3 3 3 3 3 3 3 3 3 3 3 3 3 3 3 3 3 3 3 
						3 3 3 3 3 3 3 3 3 3 3 3 3 3 3 3 3 3 3 3 3 3 3 3 3 3 3 3 3 3 3 3 3 3 3 3 3 3 3 3 3 3 3 3 3 3 3 3 3 3 3 3 3 3 3 3 3 3 3 3 3 3 3 3 
						3 3 3 3 3 3 3 3 3 3 3 3 3 3 3 3 3 3 3 3 3 3 3 3 3 3 3 3 3 3 3 3 3 3 3 3 3 3 3 3 3 3 3 3 3 3 3 3 3 3 3 3 3 3 3 3 3 3 3 3 
					</vcount>
					<p>
						3 0 1 1 2 3 7 4 5 5 6 7 9 7 6 6 8 9 11 9 8 8 10 11 13 11 10 10 12 13 15 13 12 12 14 15 17 15 14 14 16 17 21 18 19 19 20 21 23 21 20 20 22 23 25 23 22 22 24 25 27 25 24 24 26 27 29 27 26 26 28 29 31 29 28 28 30 31 0 31 30 30 1 0 35 32 33 33 34 35 39 36 37 37 38 39 41 3 2 2 40 41 45 42 43 43 44 45 4 41 40 40 5 4 49 46 47 47 48 49 46 50 51 51 47 46 50 52 53 53 51 50 52 54 55 55 53 52 54 56 57 57 55 54 56 58 59 59 57 56 58 60 61 61 59 58 65 62 63 63 64 65 62 66 67 67 63 62 66 68 69 69 67 66 68 70 71 71 69 68 70 72 73 73 71 70 72 74 75 75 73 72 
						74 76 77 77 75 74 76 78 79 79 77 76 83 80 81 81 82 83 87 84 85 85 86 87 91 88 89 89 90 91 95 92 93 93 94 95 99 96 97 97 98 99 103 100 101 101 102 103 105 104 80 80 83 105 107 106 84 84 87 107 90 89 108 108 109 90 94 93 110 110 111 94 113 112 96 96 99 113 117 114 115 115 116 117 102 101 118 118 119 102 121 120 104 104 105 121 123 122 106 106 107 123 127 124 125 125 126 127 78 49 48 48 79 78 129 128 36 36 39 129 131 130 128 128 129 131 133 132 130 130 131 133 135 134 132 132 133 135 137 136 134 134 135 137 139 138 136 136 137 139 141 140 138 138 139 141 145 142 143 143 144 145 147 146 142 142 145 147 149 148 146 146 147 149 151 150 148 148 149 151 153 152 150 150 151 153 155 154 152 152 153 155 
						157 156 154 154 155 157 38 37 156 156 157 38 161 158 159 159 160 161 165 162 163 163 164 165 167 166 92 92 95 167 169 168 88 88 91 169 171 170 124 124 127 171 86 85 172 172 173 86 82 81 174 174 175 82 177 176 158 158 161 177 116 115 122 122 123 116 164 163 120 120 121 164 119 118 166 166 167 119 126 125 168 168 169 126 173 172 112 112 113 173 175 174 114 114 117 175 111 110 170 170 171 111 109 108 176 176 177 109 193 178 179 193 179 180 193 180 181 193 181 182 193 182 183 193 183 184 193 184 185 193 185 186 193 186 187 193 187 188 193 188 189 193 189 190 193 190 191 191 192 193 197 194 195 195 196 197 201 198 199 199 200 201 205 202 203 203 204 205 207 206 42 42 45 207 211 208 209 209 210 211 215 212 213 213 214 215 196 195 216 216 217 196 
						44 43 218 218 219 44 200 199 220 220 221 200 204 203 194 194 197 204 210 209 198 198 201 210 214 213 202 202 205 214 217 216 206 206 207 217 219 218 208 208 211 219 221 220 222 222 223 221 227 224 225 225 226 227 231 228 229 229 230 231 235 232 233 233 234 235 239 236 237 237 238 239 243 240 241 241 242 243 247 244 245 245 246 247 249 248 224 224 227 249 251 250 228 228 231 251 253 252 232 232 235 253 255 254 236 236 239 255 230 229 240 240 243 230 234 233 256 256 257 234 238 237 244 244 247 238 242 241 248 248 249 242 246 245 252 252 253 246 257 256 250 250 251 257 261 258 259 259 260 261 265 262 263 263 264 265 269 266 267 267 268 269 273 270 271 271 272 273 277 274 275 275 276 277 281 278 279 279 280 281 285 282 283 283 284 285 287 286 32 32 35 287 
						289 288 262 262 265 289 280 279 266 266 269 280 34 33 270 270 273 34 264 263 290 290 291 264 268 267 282 282 285 268 272 271 278 278 281 272 276 275 286 286 287 276 284 283 288 288 289 284 295 292 293 293 294 295 297 296 258 258 261 297 299 298 292 292 295 299 301 300 296 296 297 301 303 302 298 298 299 303 305 304 300 300 301 305 307 306 302 302 303 307 309 308 304 304 305 309 313 310 311 311 312 313 312 311 306 306 307 312 317 314 315 315 316 317 319 318 310 310 313 319 321 320 314 314 317 321 260 259 318 318 319 260 294 293 320 320 321 294 325 322 323 323 324 325 324 323 326 326 327 324 327 326 328 328 329 327 333 330 331 331 332 333 329 328 334 334 335 329 332 331 336 336 337 332 335 334 330 330 333 335 337 336 338 338 339 337 339 338 340 340 341 339 
						345 342 343 343 344 345 349 346 347 347 348 349 351 350 342 342 345 351 353 352 346 346 349 353 355 354 350 350 351 355 357 356 352 352 353 357 359 358 354 354 355 359 361 360 356 356 357 361 363 362 358 358 359 363 365 364 360 360 361 365 367 366 362 362 363 367 369 368 364 364 365 369 371 370 366 366 367 371 373 372 368 368 369 373 348 347 374 374 375 348 375 374 370 370 371 375 377 376 322 322 325 377 379 378 376 376 377 379 381 380 378 378 379 381 383 382 380 380 381 383 385 384 382 382 383 385 387 386 384 384 385 387 341 340 386 386 387 341 391 388 389 389 390 391 395 392 393 393 394 395 399 396 397 397 398 399 390 389 400 400 401 390 405 402 403 403 404 405 401 400 406 406 407 401 398 397 408 408 409 398 407 406 410 410 411 407 411 410 412 412 413 411 
						409 408 414 414 415 409 413 412 416 416 417 413 415 414 418 418 419 415 423 420 421 421 422 423 427 424 425 425 426 427 429 428 420 420 423 429 431 430 424 424 427 431 433 432 428 428 429 433 435 434 430 430 431 435 437 436 432 432 433 437 439 438 434 434 435 439 441 440 436 436 437 441 445 442 443 443 444 445 444 443 438 438 439 444 449 446 447 447 448 449 451 450 442 442 445 451 453 452 446 446 449 453 422 421 450 450 451 422 426 425 452 452 453 426 455 454 392 392 395 455 394 393 388 388 391 394 457 456 454 454 455 457 459 458 456 456 457 459 419 418 460 460 461 419 463 462 458 458 459 463 461 460 464 464 465 461 467 466 462 462 463 467 469 468 466 466 467 469 471 470 468 468 469 471 465 464 472 472 473 465 417 416 470 470 471 417 473 472 474 474 475 473 
						477 476 402 402 405 477 481 478 479 479 480 481 483 482 476 476 477 483 487 484 485 485 486 487 489 488 482 482 483 489 491 490 484 484 487 491 493 492 488 488 489 493 480 479 494 494 495 480 404 403 496 496 497 404 495 494 498 498 499 495 497 496 500 500 501 497 503 502 492 492 493 503 499 498 502 502 503 499 505 504 490 490 491 505 486 485 478 478 481 486 507 506 396 396 399 507 509 508 506 506 507 509 511 510 508 508 509 511 513 512 510 510 511 513 517 514 515 515 516 517 519 518 512 512 513 519 475 474 514 514 517 475 516 515 518 518 519 516 523 520 521 521 522 523 525 524 520 520 523 525 527 526 524 524 525 527 529 528 526 526 527 529 531 530 528 528 529 531 533 532 530 530 531 533 535 534 532 532 533 535 537 536 534 534 535 537 539 538 536 536 537 539 
						541 540 538 538 539 541 543 542 540 540 541 543 545 544 542 542 543 545 547 546 544 544 545 547 549 548 546 546 547 549 551 550 548 548 549 551 522 521 550 550 551 522 567 552 553 567 553 554 567 554 555 567 555 556 567 556 557 567 557 558 567 558 559 567 559 560 567 560 561 567 561 562 567 562 563 567 563 564 567 564 565 565 566 567 571 568 569 569 570 571 575 572 573 573 574 575 570 569 576 576 577 570 574 573 578 578 579 574 583 580 581 581 582 583 577 576 580 580 583 577 579 578 584 584 585 579 582 581 586 586 587 582 585 584 588 588 589 585 587 586 590 590 591 587 589 588 592 592 593 589 591 590 594 594 595 591 593 592 596 596 597 593 595 594 598 598 599 595 597 596 568 568 571 597 599 598 572 572 575 599 
					</p>
				</polylist>
			</mesh>
		</geometry>
		<geometry id="meshId1" name="meshId1_name" >
			<mesh>
				<source id="meshId1-positions" name="meshId1-positions">
					<float_array id="meshId1-positions-array" count="75"> 
						0.246819 -0.764489 -0.246819 0.261710 -0.789368 -0.000000 -0.000000 -0.818855 0.000000 -0.000000 -0.789368 -0.261710 0.246819 -0.764489 0.246819 0.000000 -0.789368 0.261710 -0.261710 -0.789368 0.000000 -0.246819 -0.764489 -0.246819 -0.246819 -0.764489 0.246819 0.385454 -0.663139 -0.385454 0.443306 -0.695064 -0.229532 0.229532 -0.695064 -0.443306 0.472083 -0.710945 -0.000000 0.443306 -0.695064 0.229532 0.385454 -0.663139 0.385454 0.229532 -0.695064 0.443306 -0.000000 -0.710945 0.472083 -0.229532 -0.695064 0.443306 -0.385454 -0.663139 0.385454 -0.443306 -0.695064 0.229532 -0.472083 -0.710945 -0.000000 -0.443306 -0.695064 -0.229532 -0.229532 -0.695064 -0.443306 -0.385454 -0.663139 -0.385454 -0.000000 -0.710945 -0.472083 
					</float_array>
					<technique_common>
						<accessor count="25" offset="0" source="#meshId1-positions-array" stride="3">
							<param name="X" type="float" />
							<param name="Y" type="float" />
							<param name="Z" type="float" />
						</accessor>
					</technique_common>
				</source>
				<source id="meshId1-normals" name="meshId1-normals">
					<float_array id="meshId1-normals-array" count="75"> 
						0.223653 -0.948661 -0.223653 0.231938 -0.972731 -0.000000 0.000000 -1.000000 -0.000000 -0.000000 -0.972731 -0.231938 0.223653 -0.948661 0.223653 0.000000 -0.972731 0.231938 -0.231938 -0.972731 -0.000000 -0.223653 -0.948661 -0.223653 -0.223653 -0.948661 0.223653 0.324707 -0.888331 -0.324707 0.337753 -0.919608 -0.200608 0.200608 -0.919608 -0.337753 0.345734 -0.938332 -0.000000 0.337753 -0.919608 0.200608 0.324707 -0.888331 0.324707 0.200608 -0.919608 0.337753 0.000000 -0.938332 0.345734 -0.200608 -0.919608 0.337753 -0.324707 -0.888330 0.324707 -0.337753 -0.919608 0.200608 -0.345734 -0.938332 0.000000 -0.337753 -0.919608 -0.200608 -0.200608 -0.919608 -0.337753 -0.324707 -0.888331 -0.324706 -0.000000 -0.938332 -0.345734 
					</float_array>
					<technique_common>
						<accessor count="25" offset="0" source="#meshId1-normals-array" stride="3">
							<param name="X" type="float" />
							<param name="Y" type="float" />
							<param name="Z" type="float" />
						</accessor>
					</technique_common>
				</source>
				<source id="meshId1-tangents" name="meshId1-tangents">
					<float_array id="meshId1-tangents-array" count="75"> 
						-0.974500 -0.213380 -0.069415 -0.972727 -0.231937 0.002817 -0.999887 -0.000000 0.015061 -0.999849 -0.004034 0.016916 -0.973493 -0.206157 0.099044 -0.999849 0.004033 0.016916 -0.972727 0.231937 0.002817 -0.973493 0.206157 0.099044 -0.974500 0.213380 -0.069415 -0.914250 -0.206841 -0.348374 -0.939798 -0.317718 -0.125835 -0.976015 -0.157846 -0.149931 -0.938174 -0.345676 -0.018378 -0.941153 -0.332773 0.059106 -0.939956 -0.264930 0.215163 -0.970129 -0.138471 0.199188 -0.999801 0.006894 0.018710 -0.976015 0.157846 -0.149931 -0.914249 0.206841 -0.348374 -0.939798 0.317718 -0.125836 -0.938174 0.345676 -0.018379 -0.941153 0.332773 0.059104 -0.970129 0.138471 0.199189 -0.939956 0.264930 0.215162 -0.999801 -0.006894 0.018710 
					</float_array>
					<technique_common>
						<accessor count="25" offset="0" source="#meshId1-tangents-array" stride="3">
							<param name="X" type="float" />
							<param name="Y" type="float" />
							<param name="Z" type="float" />
						</accessor>
					</technique_common>
				</source>
				<source id="meshId1-bitangents" name="meshId1-bitangents">
					<float_array id="meshId1-bitangents-array" count="75"> 
						0.018128 0.233475 -0.972194 -0.002741 -0.000653 -0.999996 -0.015061 0.000000 -0.999887 -0.017391 0.231903 -0.972584 -0.047852 -0.239877 -0.969623 -0.017390 -0.231903 -0.972584 -0.002740 0.000653 -0.999996 -0.047852 0.239877 -0.969623 0.018129 -0.233475 -0.972194 0.242308 0.409982 -0.879319 0.051982 0.231032 -0.971557 0.084565 0.359730 -0.929217 0.017245 0.006354 -0.999831 0.012402 -0.208766 -0.977887 -0.105112 -0.375075 -0.921016 -0.136406 -0.367623 -0.919917 -0.019940 -0.345666 -0.938146 0.084565 -0.359730 -0.929217 0.242309 -0.409983 -0.879318 0.051983 -0.231032 -0.971556 0.017246 -0.006354 -0.999831 0.012404 0.208765 -0.977887 -0.136407 0.367623 -0.919917 -0.105111 0.375074 -0.921016 -0.019940 0.345665 -0.938146 
					</float_array>
					<technique_common>
						<accessor count="25" offset="0" source="#meshId1-bitangents-array" stride="3">
							<param name="X" type="float" />
							<param name="Y" type="float" />
							<param name="Z" type="float" />
						</accessor>
					</technique_common>
				</source>
				<source id="meshId1-tex0" name="meshId1-tex0">
					<float_array id="meshId1-tex0-array" count="50"> 
						0.250002 0.749999 0.250002 0.500000 0.500000 0.500000 0.500000 0.749999 0.250002 0.250002 0.500000 0.250001 0.749999 0.500000 0.749999 0.749999 0.749999 0.250001 0.000003 0.999998 0.000003 0.749999 0.250002 0.999998 0.000003 0.500000 0.000003 0.250001 0.000002 0.000003 0.250001 0.000003 0.500000 0.000003 0.749999 0.000003 0.999997 0.000003 0.999997 0.250001 0.999998 0.500000 0.999998 0.749999 0.749999 0.999997 0.999998 0.999997 0.500000 0.999997 
					</float_array>
					<technique_common>
						<accessor count="25" offset="0" source="#meshId1-tex0-array" stride="2">
							<param name="S" type="float" />
							<param name="T" type="float" />
						</accessor>
					</technique_common>
				</source>
				<vertices id="meshId1-vertices">
					<input semantic="POSITION" source="#meshId1-positions" />
				</vertices>
				<polylist count="32" material="defaultMaterial">
					<input offset="0" semantic="VERTEX" source="#meshId1-vertices" />
					<input offset="0" semantic="NORMAL" source="#meshId1-normals" />
					<input offset="0" semantic="TANGENT" source="#meshId1-tangents" />
					<input offset="0" semantic="BINORMAL" source="#meshId1-bitangents" />
					<input offset="0" semantic="TEXCOORD" source="#meshId1-tex0" set="0" />
					<vcount>
						3 3 3 3 3 3 3 3 3 3 3 3 3 3 3 3 3 3 3 3 3 3 3 3 3 3 3 3 3 3 3 3 
					</vcount>
					<p>
						3 0 1 1 2 3 2 1 4 4 5 2 7 3 2 2 6 7 6 2 5 5 8 6 11 9 10 10 0 11 0 10 12 12 1 0 1 12 13 13 4 1 4 13 14 14 15 4 5 4 15 15 16 5 8 5 16 16 17 8 19 8 17 17 18 19 20 6 8 8 19 20 21 7 6 6 20 21 23 22 7 7 21 23 22 24 3 3 7 22 24 11 0 0 3 24 
					</p>
				</polylist>
			</mesh>
		</geometry>
	</library_geometries>
	<library_visual_scenes>
		<visual_scene id="RootNode" name="RootNode">
			<node id="Cylinder.001" name="Cylinder.001">
				<matrix>100.000000 0.000000 0.000000 0.000000 0.000000 -0.000016 100.000000 0.000000 0.000000 -100.000000 -0.000016 0.000000 0.000000 0.000000 0.000000 1.000000</matrix>
				<instance_geometry url="#meshId0">
					<bind_material>
						<technique_common>
							<instance_material symbol="defaultMaterial" target="#Material_001" />
						</technique_common>
					</bind_material>
				</instance_geometry>
			</node>
			<node id="Cube" name="Cube">
				<matrix>100.000000 0.000000 0.000000 0.000000 0.000000 -0.000016 100.000000 0.000000 0.000000 -100.000000 -0.000016 208.149750 0.000000 0.000000 0.000000 1.000000</matrix>
				<instance_geometry url="#meshId1">
					<bind_material>
						<technique_common>
							<instance_material symbol="defaultMaterial" target="#Material_002" />
						</technique_common>
					</bind_material>
				</instance_geometry>
			</node>
		</visual_scene>
	</library_visual_scenes>
	<scene>
		<instance_visual_scene url="#RootNode" />
	</scene>
</COLLADA>
